testOutput_info.ufo
<glyph name="exclam" format="1">
  <advance width="140"/>
  <unicode hex="0021"/>
  <outline>
    <contour>
      <point x="131" y="709" type="line"/>
      <point x="9" y="709" type="line"/>
      <point x="26" y="225" type="line"/>
      <point x="115" y="225" type="line"/>
    </contour>
    <contour>
      <point x="16" y="127" type="line"/>
      <point x="16" y="0" type="line"/>
      <point x="125" y="0" type="line"/>
      <point x="125" y="127" type="line"/>
    </contour>
  </outline>
</glyph>
<glyph name="numbersign" format="1">
  <advance width="331"/>
  <unicode hex="0023"/>
  <outline>
    <contour>
      <point x="170" y="218" type="line"/>
      <point x="141" y="0" type="line"/>
      <point x="213" y="0" type="line"/>
      <point x="241" y="218" type="line"/>
      <point x="297" y="218" type="line"/>
      <point x="306" y="288" type="line"/>
      <point x="250" y="288" type="line"/>
      <point x="268" y="419" type="line"/>
      <point x="324" y="419" type="line"/>
      <point x="333" y="489" type="line"/>
      <point x="277" y="489" type="line"/>
      <point x="305" y="699" type="line"/>
      <point x="233" y="699" type="line"/>
      <point x="206" y="489" type="line"/>
      <point x="162" y="489" type="line"/>
      <point x="190" y="699" type="line"/>
      <point x="118" y="699" type="line"/>
      <point x="91" y="489" type="line"/>
      <point x="35" y="489" type="line"/>
      <point x="25" y="419" type="line"/>
      <point x="82" y="419" type="line"/>
      <point x="64" y="288" type="line"/>
      <point x="8" y="288" type="line"/>
      <point x="-2" y="218" type="line"/>
      <point x="55" y="218" type="line"/>
      <point x="26" y="0" type="line"/>
      <point x="98" y="0" type="line"/>
      <point x="126" y="218" type="line"/>
    </contour>
    <contour>
      <point x="179" y="288" type="line"/>
      <point x="135" y="288" type="line"/>
      <point x="153" y="419" type="line"/>
      <point x="197" y="419" type="line"/>
    </contour>
  </outline>
</glyph>
<glyph name="dollar" format="1">
  <advance width="309"/>
  <unicode hex="0024"/>
  <outline>
    <contour>
      <point x="176" y="605" type="line"/>
      <point x="194" y="597"/>
      <point x="196" y="563"/>
      <point x="195" y="523" type="curve"/>
      <point x="286" y="522" type="line"/>
      <point x="288" y="593"/>
      <point x="271" y="663"/>
      <point x="176" y="674" type="curve"/>
      <point x="176" y="751" type="line"/>
      <point x="132" y="751" type="line"/>
      <point x="132" y="675" type="line"/>
      <point x="51" y="666"/>
      <point x="9" y="608"/>
      <point x="9" y="519" type="curve" smooth="yes"/>
      <point x="9" y="416"/>
      <point x="64" y="365"/>
      <point x="132" y="310" type="curve"/>
      <point x="132" y="83" type="line"/>
      <point x="105" y="91"/>
      <point x="103" y="125"/>
      <point x="104" y="176" type="curve"/>
      <point x="8" y="177" type="line"/>
      <point x="6" y="82"/>
      <point x="35" y="23"/>
      <point x="132" y="14" type="curve"/>
      <point x="132" y="-70" type="line"/>
      <point x="176" y="-70" type="line"/>
      <point x="176" y="14" type="line"/>
      <point x="248" y="24"/>
      <point x="304" y="85"/>
      <point x="304" y="188" type="curve" smooth="yes"/>
      <point x="304" y="289"/>
      <point x="240" y="338"/>
      <point x="176" y="396" type="curve"/>
    </contour>
    <contour>
      <point x="132" y="431" type="line"/>
      <point x="113" y="462"/>
      <point x="110" y="492"/>
      <point x="110" y="531" type="curve" smooth="yes"/>
      <point x="110" y="566"/>
      <point x="118" y="597"/>
      <point x="132" y="605" type="curve"/>
    </contour>
    <contour>
      <point x="176" y="276" type="line"/>
      <point x="195" y="244"/>
      <point x="203" y="217"/>
      <point x="203" y="175" type="curve" smooth="yes"/>
      <point x="203" y="131"/>
      <point x="197" y="91"/>
      <point x="176" y="84" type="curve"/>
    </contour>
  </outline>
</glyph>
<glyph name="percent" format="1">
  <advance width="508"/>
  <unicode hex="0025"/>
  <outline>
    <contour>
      <point x="233" y="531" type="line"/>
      <point x="233" y="656"/>
      <point x="184" y="713"/>
      <point x="119" y="713" type="curve" smooth="yes"/>
      <point x="54" y="713"/>
      <point x="6" y="656"/>
      <point x="6" y="531" type="curve" smooth="yes"/>
      <point x="6" y="405"/>
      <point x="57" y="349"/>
      <point x="119" y="349" type="curve" smooth="yes"/>
      <point x="180" y="349"/>
      <point x="233" y="404"/>
      <point x="233" y="530" type="curve"/>
    </contour>
    <contour>
      <point x="420" y="706" type="line"/>
      <point x="335" y="706" type="line"/>
      <point x="86" y="-6" type="line"/>
      <point x="172" y="-6" type="line"/>
    </contour>
    <contour>
      <point x="119" y="410" type="line"/>
      <point x="99" y="410"/>
      <point x="96" y="457"/>
      <point x="96" y="531" type="curve" smooth="yes"/>
      <point x="96" y="604"/>
      <point x="99" y="652"/>
      <point x="119" y="652" type="curve" smooth="yes"/>
      <point x="140" y="652"/>
      <point x="142" y="604"/>
      <point x="142" y="531" type="curve" smooth="yes"/>
      <point x="142" y="457"/>
      <point x="139" y="410"/>
      <point x="120" y="410" type="curve"/>
    </contour>
    <contour>
      <point x="502" y="169" type="line"/>
      <point x="502" y="295"/>
      <point x="454" y="351"/>
      <point x="389" y="351" type="curve" smooth="yes"/>
      <point x="324" y="351"/>
      <point x="276" y="295"/>
      <point x="276" y="169" type="curve" smooth="yes"/>
      <point x="276" y="43"/>
      <point x="327" y="-13"/>
      <point x="389" y="-13" type="curve" smooth="yes"/>
      <point x="450" y="-13"/>
      <point x="502" y="42"/>
      <point x="502" y="168" type="curve"/>
    </contour>
    <contour>
      <point x="389" y="48" type="line"/>
      <point x="368" y="48"/>
      <point x="366" y="95"/>
      <point x="366" y="169" type="curve" smooth="yes"/>
      <point x="366" y="242"/>
      <point x="368" y="290"/>
      <point x="389" y="290" type="curve" smooth="yes"/>
      <point x="409" y="290"/>
      <point x="412" y="242"/>
      <point x="412" y="169" type="curve" smooth="yes"/>
      <point x="412" y="95"/>
      <point x="409" y="48"/>
      <point x="390" y="48" type="curve"/>
    </contour>
  </outline>
</glyph>
<glyph name="ampersand" format="1">
  <advance width="335"/>
  <unicode hex="0026"/>
  <outline>
    <contour>
      <point x="345" y="-1" type="line"/>
      <point x="329" y="30"/>
      <point x="310" y="73"/>
      <point x="290" y="119" type="curve"/>
      <point x="315" y="184"/>
      <point x="330" y="253"/>
      <point x="330" y="354" type="curve"/>
      <point x="246" y="354" type="line"/>
      <point x="247" y="290"/>
      <point x="245" y="240"/>
      <point x="242" y="201" type="curve"/>
      <point x="231" y="239"/>
      <point x="209" y="315"/>
      <point x="197" y="366" type="curve"/>
      <point x="241" y="427"/>
      <point x="268" y="479"/>
      <point x="268" y="548" type="curve" smooth="yes"/>
      <point x="268" y="641"/>
      <point x="203" y="674"/>
      <point x="162" y="674" type="curve" smooth="yes"/>
      <point x="82" y="674"/>
      <point x="46" y="616"/>
      <point x="46" y="540" type="curve" smooth="yes"/>
      <point x="46" y="479"/>
      <point x="62" y="426"/>
      <point x="89" y="367" type="curve"/>
      <point x="41" y="308"/>
      <point x="11" y="247"/>
      <point x="11" y="165" type="curve" smooth="yes"/>
      <point x="11" y="57"/>
      <point x="50" y="-14"/>
      <point x="132" y="-14" type="curve" smooth="yes"/>
      <point x="186" y="-14"/>
      <point x="208" y="15"/>
      <point x="223" y="45" type="curve"/>
      <point x="225" y="45" type="line"/>
      <point x="229" y="28"/>
      <point x="234" y="15"/>
      <point x="239" y="-1" type="curve"/>
    </contour>
    <contour>
      <point x="142" y="541" type="line"/>
      <point x="142" y="591"/>
      <point x="151" y="607"/>
      <point x="163" y="607" type="curve" smooth="yes"/>
      <point x="176" y="607"/>
      <point x="183" y="580"/>
      <point x="183" y="546" type="curve" smooth="yes"/>
      <point x="183" y="509"/>
      <point x="170" y="462"/>
      <point x="159" y="431" type="curve"/>
      <point x="149" y="464"/>
      <point x="142" y="498"/>
      <point x="142" y="540" type="curve"/>
    </contour>
    <contour>
      <point x="116" y="158" type="line"/>
      <point x="116" y="210"/>
      <point x="124" y="250"/>
      <point x="134" y="284" type="curve"/>
      <point x="150" y="223"/>
      <point x="170" y="158"/>
      <point x="186" y="108" type="curve"/>
      <point x="179" y="77"/>
      <point x="169" y="55"/>
      <point x="152" y="55" type="curve" smooth="yes"/>
      <point x="126" y="55"/>
      <point x="116" y="101"/>
      <point x="116" y="157" type="curve"/>
    </contour>
  </outline>
</glyph>
<glyph name="parenleft" format="1">
  <advance width="178"/>
  <unicode hex="0028"/>
  <outline>
    <contour>
      <point x="205" y="-127" type="line"/>
      <point x="180" y="-78"/>
      <point x="162" y="-33"/>
      <point x="151" y="20" type="curve" smooth="yes"/>
      <point x="134" y="110"/>
      <point x="133" y="198"/>
      <point x="133" y="292" type="curve" smooth="yes"/>
      <point x="133" y="411"/>
      <point x="140" y="496"/>
      <point x="153" y="563" type="curve" smooth="yes"/>
      <point x="164" y="620"/>
      <point x="182" y="664"/>
      <point x="206" y="709" type="curve"/>
      <point x="165" y="767" type="line"/>
      <point x="134" y="725"/>
      <point x="97" y="676"/>
      <point x="69" y="609" type="curve" smooth="yes"/>
      <point x="39" y="530"/>
      <point x="18" y="430"/>
      <point x="17" y="292" type="curve" smooth="yes"/>
      <point x="16" y="155"/>
      <point x="37" y="54"/>
      <point x="68" y="-26" type="curve" smooth="yes"/>
      <point x="96" y="-94"/>
      <point x="133" y="-144"/>
      <point x="164" y="-185" type="curve"/>
    </contour>
  </outline>
</glyph>
<glyph name="parenright" format="1">
  <advance width="178"/>
  <unicode hex="0029"/>
  <outline>
    <contour>
      <point x="15" y="-185" type="line"/>
      <point x="45" y="-144"/>
      <point x="82" y="-94"/>
      <point x="110" y="-26" type="curve" smooth="yes"/>
      <point x="141" y="54"/>
      <point x="163" y="155"/>
      <point x="161" y="292" type="curve" smooth="yes"/>
      <point x="160" y="430"/>
      <point x="141" y="530"/>
      <point x="110" y="609" type="curve" smooth="yes"/>
      <point x="81" y="676"/>
      <point x="44" y="725"/>
      <point x="14" y="767" type="curve"/>
      <point x="-29" y="709" type="line"/>
      <point x="-4" y="664"/>
      <point x="14" y="620"/>
      <point x="25" y="563" type="curve" smooth="yes"/>
      <point x="39" y="496"/>
      <point x="45" y="411"/>
      <point x="45" y="292" type="curve" smooth="yes"/>
      <point x="45" y="198"/>
      <point x="45" y="110"/>
      <point x="27" y="20" type="curve" smooth="yes"/>
      <point x="16" y="-33"/>
      <point x="-1" y="-78"/>
      <point x="-28" y="-127" type="curve"/>
    </contour>
  </outline>
</glyph>
<glyph name="comma" format="1">
  <advance width="129"/>
  <unicode hex="002C"/>
  <outline>
    <contour>
      <point x="1" y="-124" type="line"/>
      <point x="71" y="-124" type="line"/>
      <point x="130" y="127" type="line"/>
      <point x="14" y="127" type="line"/>
    </contour>
  </outline>
</glyph>
<glyph name="hyphen" format="1">
  <advance width="171"/>
  <unicode hex="002D"/>
  <outline>
    <contour>
      <point x="9" y="301" type="line"/>
      <point x="9" y="198" type="line"/>
      <point x="163" y="198" type="line"/>
      <point x="163" y="301" type="line"/>
    </contour>
  </outline>
</glyph>
<glyph name="period" format="1">
  <advance width="129"/>
  <unicode hex="002E"/>
  <outline>
    <contour>
      <point x="11" y="127" type="line"/>
      <point x="11" y="0" type="line"/>
      <point x="119" y="0" type="line"/>
      <point x="119" y="127" type="line"/>
    </contour>
  </outline>
</glyph>
<glyph name="slash" format="1">
  <advance width="219"/>
  <unicode hex="002F"/>
  <outline>
    <contour>
      <point x="227" y="739" type="line"/>
      <point x="141" y="739" type="line"/>
      <point x="-8" y="-12" type="line"/>
      <point x="79" y="-12" type="line"/>
    </contour>
  </outline>
</glyph>
<glyph name="zero" format="1">
  <advance width="304"/>
  <unicode hex="0030"/>
  <outline>
    <contour>
      <point x="15" y="346" type="line"/>
      <point x="15" y="70"/>
      <point x="65" y="-13"/>
      <point x="152" y="-13" type="curve" smooth="yes"/>
      <point x="247" y="-13"/>
      <point x="289" y="83"/>
      <point x="289" y="346" type="curve" smooth="yes"/>
      <point x="289" y="603"/>
      <point x="248" y="705"/>
      <point x="152" y="705" type="curve" smooth="yes"/>
      <point x="57" y="705"/>
      <point x="15" y="606"/>
      <point x="15" y="347" type="curve"/>
    </contour>
    <contour>
      <point x="152" y="625" type="line"/>
      <point x="174" y="625"/>
      <point x="179" y="544"/>
      <point x="179" y="347" type="curve" smooth="yes"/>
      <point x="179" y="120"/>
      <point x="169" y="68"/>
      <point x="152" y="68" type="curve" smooth="yes"/>
      <point x="136" y="68"/>
      <point x="125" y="116"/>
      <point x="125" y="347" type="curve" smooth="yes"/>
      <point x="125" y="548"/>
      <point x="130" y="625"/>
      <point x="151" y="625" type="curve"/>
    </contour>
  </outline>
</glyph>
<glyph name="one" format="1">
  <advance width="238"/>
  <unicode hex="0031"/>
  <outline>
    <contour>
      <point x="-17" y="597" type="line"/>
      <point x="25" y="517" type="line"/>
      <point x="98" y="560" type="line"/>
      <point x="98" y="0" type="line"/>
      <point x="206" y="0" type="line"/>
      <point x="206" y="698" type="line"/>
      <point x="150" y="698" type="line"/>
    </contour>
  </outline>
</glyph>
<glyph name="two" format="1">
  <advance width="294"/>
  <unicode hex="0032"/>
  <outline>
    <contour>
      <point x="284" y="92" type="line"/>
      <point x="117" y="92" type="line"/>
      <point x="149" y="270"/>
      <point x="285" y="325"/>
      <point x="285" y="524" type="curve" smooth="yes"/>
      <point x="285" y="612"/>
      <point x="250" y="705"/>
      <point x="142" y="705" type="curve" smooth="yes"/>
      <point x="26" y="705"/>
      <point x="2" y="603"/>
      <point x="5" y="529" type="curve"/>
      <point x="110" y="529" type="line"/>
      <point x="109" y="582"/>
      <point x="114" y="625"/>
      <point x="140" y="625" type="curve" smooth="yes"/>
      <point x="166" y="625"/>
      <point x="175" y="570"/>
      <point x="175" y="521" type="curve" smooth="yes"/>
      <point x="175" y="366"/>
      <point x="26" y="287"/>
      <point x="2" y="9" type="curve"/>
      <point x="13" y="0" type="line"/>
      <point x="284" y="0" type="line"/>
    </contour>
  </outline>
</glyph>
<glyph name="three" format="1">
  <advance width="296"/>
  <unicode hex="0033"/>
  <outline>
    <contour>
      <point x="86" y="323" type="line"/>
      <point x="148" y="317"/>
      <point x="177" y="275"/>
      <point x="177" y="178" type="curve" smooth="yes"/>
      <point x="177" y="121"/>
      <point x="168" y="69"/>
      <point x="143" y="69" type="curve" smooth="yes"/>
      <point x="119" y="69"/>
      <point x="113" y="111"/>
      <point x="114" y="160" type="curve"/>
      <point x="9" y="161" type="line"/>
      <point x="8" y="76"/>
      <point x="31" y="-12"/>
      <point x="146" y="-12" type="curve" smooth="yes"/>
      <point x="232" y="-12"/>
      <point x="288" y="57"/>
      <point x="288" y="188" type="curve" smooth="yes"/>
      <point x="288" y="307"/>
      <point x="230" y="360"/>
      <point x="176" y="373" type="curve"/>
      <point x="176" y="375" type="line"/>
      <point x="240" y="394"/>
      <point x="272" y="453"/>
      <point x="272" y="546" type="curve" smooth="yes"/>
      <point x="272" y="649"/>
      <point x="220" y="705"/>
      <point x="141" y="705" type="curve" smooth="yes"/>
      <point x="35" y="705"/>
      <point x="11" y="622"/>
      <point x="12" y="543" type="curve"/>
      <point x="110" y="544" type="line"/>
      <point x="109" y="592"/>
      <point x="117" y="625"/>
      <point x="136" y="625" type="curve" smooth="yes"/>
      <point x="155" y="625"/>
      <point x="166" y="589"/>
      <point x="166" y="537" type="curve" smooth="yes"/>
      <point x="166" y="463"/>
      <point x="143" y="418"/>
      <point x="86" y="408" type="curve"/>
    </contour>
  </outline>
</glyph>
<glyph name="four" format="1">
  <advance width="306"/>
  <unicode hex="0034"/>
  <outline>
    <contour>
      <point x="2" y="250" type="line"/>
      <point x="2" y="176" type="line"/>
      <point x="166" y="176" type="line"/>
      <point x="166" y="0" type="line"/>
      <point x="273" y="0" type="line"/>
      <point x="273" y="176" type="line"/>
      <point x="297" y="176" type="line"/>
      <point x="297" y="252" type="line"/>
      <point x="273" y="252" type="line"/>
      <point x="273" y="698" type="line"/>
      <point x="149" y="698" type="line"/>
    </contour>
    <contour>
      <point x="82" y="252" type="line"/>
      <point x="122" y="399" type="line"/>
      <point x="138" y="453"/>
      <point x="151" y="501"/>
      <point x="164" y="554" type="curve"/>
      <point x="167" y="554" type="line"/>
      <point x="166" y="506"/>
      <point x="166" y="451"/>
      <point x="166" y="400" type="curve" smooth="yes"/>
      <point x="166" y="252" type="line"/>
    </contour>
  </outline>
</glyph>
<glyph name="five" format="1">
  <advance width="301"/>
  <unicode hex="0035"/>
  <outline>
    <contour>
      <point x="25" y="325" type="line"/>
      <point x="119" y="314" type="line"/>
      <point x="125" y="347"/>
      <point x="134" y="368"/>
      <point x="146" y="368" type="curve" smooth="yes"/>
      <point x="168" y="368"/>
      <point x="179" y="317"/>
      <point x="179" y="216" type="curve" smooth="yes"/>
      <point x="179" y="104"/>
      <point x="163" y="64"/>
      <point x="145" y="64" type="curve" smooth="yes"/>
      <point x="124" y="64"/>
      <point x="117" y="110"/>
      <point x="118" y="175" type="curve"/>
      <point x="13" y="176" type="line"/>
      <point x="10" y="65"/>
      <point x="53" y="-12"/>
      <point x="147" y="-12" type="curve" smooth="yes"/>
      <point x="226" y="-12"/>
      <point x="289" y="51"/>
      <point x="289" y="221" type="curve" smooth="yes"/>
      <point x="289" y="365"/>
      <point x="256" y="447"/>
      <point x="187" y="447" type="curve" smooth="yes"/>
      <point x="161" y="447"/>
      <point x="142" y="431"/>
      <point x="131" y="414" type="curve"/>
      <point x="128" y="414" type="line"/>
      <point x="149" y="606" type="line"/>
      <point x="264" y="606" type="line"/>
      <point x="273" y="692" type="line"/>
      <point x="61" y="692" type="line"/>
    </contour>
  </outline>
</glyph>
<glyph name="six" format="1">
  <advance width="301"/>
  <unicode hex="0036"/>
  <outline>
    <contour>
      <point x="119" y="385" type="line"/>
      <point x="119" y="589"/>
      <point x="140" y="625"/>
      <point x="156" y="625" type="curve" smooth="yes"/>
      <point x="175" y="625"/>
      <point x="178" y="588"/>
      <point x="177" y="550" type="curve"/>
      <point x="281" y="548" type="line"/>
      <point x="285" y="656"/>
      <point x="234" y="705"/>
      <point x="160" y="705" type="curve" smooth="yes"/>
      <point x="25" y="705"/>
      <point x="9" y="552"/>
      <point x="9" y="330" type="curve" smooth="yes"/>
      <point x="9" y="21"/>
      <point x="107" y="-12"/>
      <point x="158" y="-12" type="curve" smooth="yes"/>
      <point x="263" y="-12"/>
      <point x="298" y="93"/>
      <point x="298" y="223" type="curve" smooth="yes"/>
      <point x="298" y="366"/>
      <point x="254" y="439"/>
      <point x="193" y="439" type="curve" smooth="yes"/>
      <point x="159" y="439"/>
      <point x="137" y="419"/>
      <point x="122" y="385" type="curve"/>
    </contour>
    <contour>
      <point x="121" y="257" type="line"/>
      <point x="121" y="309"/>
      <point x="136" y="359"/>
      <point x="156" y="359" type="curve" smooth="yes"/>
      <point x="178" y="359"/>
      <point x="187" y="286"/>
      <point x="187" y="212" type="curve" smooth="yes"/>
      <point x="187" y="144"/>
      <point x="184" y="69"/>
      <point x="156" y="69" type="curve" smooth="yes"/>
      <point x="135" y="69"/>
      <point x="121" y="142"/>
      <point x="121" y="256" type="curve"/>
    </contour>
  </outline>
</glyph>
<glyph name="seven" format="1">
  <advance width="244"/>
  <unicode hex="0037"/>
  <outline>
    <contour>
      <point x="248" y="692" type="line"/>
      <point x="-4" y="692" type="line"/>
      <point x="-4" y="599" type="line"/>
      <point x="144" y="599" type="line"/>
      <point x="144" y="594" type="line"/>
      <point x="35" y="0" type="line"/>
      <point x="147" y="0" type="line"/>
      <point x="248" y="661" type="line"/>
    </contour>
  </outline>
</glyph>
<glyph name="eight" format="1">
  <advance width="299"/>
  <unicode hex="0038"/>
  <outline>
    <contour>
      <point x="82" y="370" type="line"/>
      <point x="50" y="351"/>
      <point x="8" y="309"/>
      <point x="8" y="190" type="curve" smooth="yes"/>
      <point x="8" y="41"/>
      <point x="94" y="-12"/>
      <point x="150" y="-12" type="curve" smooth="yes"/>
      <point x="207" y="-12"/>
      <point x="292" y="43"/>
      <point x="292" y="190" type="curve" smooth="yes"/>
      <point x="292" y="309"/>
      <point x="248" y="351"/>
      <point x="218" y="370" type="curve"/>
      <point x="218" y="372" type="line"/>
      <point x="236" y="384"/>
      <point x="286" y="411"/>
      <point x="286" y="529" type="curve" smooth="yes"/>
      <point x="286" y="640"/>
      <point x="230" y="705"/>
      <point x="150" y="705" type="curve" smooth="yes"/>
      <point x="60" y="705"/>
      <point x="14" y="632"/>
      <point x="14" y="529" type="curve" smooth="yes"/>
      <point x="14" y="428"/>
      <point x="47" y="395"/>
      <point x="82" y="372" type="curve"/>
    </contour>
    <contour>
      <point x="122" y="515" type="line"/>
      <point x="122" y="591"/>
      <point x="136" y="625"/>
      <point x="150" y="625" type="curve" smooth="yes"/>
      <point x="165" y="625"/>
      <point x="178" y="587"/>
      <point x="178" y="516" type="curve" smooth="yes"/>
      <point x="178" y="428"/>
      <point x="162" y="403"/>
      <point x="150" y="403" type="curve" smooth="yes"/>
      <point x="135" y="403"/>
      <point x="122" y="434"/>
      <point x="122" y="514" type="curve"/>
    </contour>
    <contour>
      <point x="118" y="195" type="line"/>
      <point x="118" y="284"/>
      <point x="135" y="322"/>
      <point x="150" y="322" type="curve" smooth="yes"/>
      <point x="161" y="322"/>
      <point x="182" y="287"/>
      <point x="182" y="195" type="curve" smooth="yes"/>
      <point x="182" y="113"/>
      <point x="169" y="69"/>
      <point x="150" y="69" type="curve" smooth="yes"/>
      <point x="131" y="69"/>
      <point x="118" y="111"/>
      <point x="118" y="194" type="curve"/>
    </contour>
  </outline>
</glyph>
<glyph name="nine" format="1">
  <advance width="303"/>
  <unicode hex="0039"/>
  <outline>
    <contour>
      <point x="184" y="308" type="line"/>
      <point x="184" y="124"/>
      <point x="168" y="69"/>
      <point x="147" y="69" type="curve" smooth="yes"/>
      <point x="122" y="69"/>
      <point x="120" y="114"/>
      <point x="122" y="163" type="curve"/>
      <point x="17" y="164" type="line"/>
      <point x="13" y="52"/>
      <point x="53" y="-12"/>
      <point x="141" y="-12" type="curve" smooth="yes"/>
      <point x="272" y="-12"/>
      <point x="294" y="166"/>
      <point x="294" y="369" type="curve" smooth="yes"/>
      <point x="294" y="637"/>
      <point x="224" y="705"/>
      <point x="145" y="705" type="curve" smooth="yes"/>
      <point x="41" y="705"/>
      <point x="5" y="604"/>
      <point x="5" y="470" type="curve" smooth="yes"/>
      <point x="5" y="380"/>
      <point x="24" y="254"/>
      <point x="110" y="254" type="curve" smooth="yes"/>
      <point x="150" y="254"/>
      <point x="169" y="289"/>
      <point x="182" y="308" type="curve"/>
    </contour>
    <contour>
      <point x="182" y="431" type="line"/>
      <point x="182" y="390"/>
      <point x="170" y="335"/>
      <point x="147" y="335" type="curve" smooth="yes"/>
      <point x="123" y="335"/>
      <point x="116" y="414"/>
      <point x="116" y="481" type="curve" smooth="yes"/>
      <point x="116" y="569"/>
      <point x="124" y="625"/>
      <point x="146" y="625" type="curve" smooth="yes"/>
      <point x="163" y="625"/>
      <point x="182" y="579"/>
      <point x="182" y="432" type="curve"/>
    </contour>
  </outline>
</glyph>
<glyph name="colon" format="1">
  <advance width="129"/>
  <unicode hex="003A"/>
  <outline>
    <contour>
      <point x="11" y="492" type="line"/>
      <point x="11" y="365" type="line"/>
      <point x="119" y="365" type="line"/>
      <point x="119" y="492" type="line"/>
    </contour>
    <contour>
      <point x="11" y="127" type="line"/>
      <point x="11" y="0" type="line"/>
      <point x="119" y="0" type="line"/>
      <point x="119" y="127" type="line"/>
    </contour>
  </outline>
</glyph>
<glyph name="semicolon" format="1">
  <advance width="129"/>
  <unicode hex="003B"/>
  <outline>
    <contour>
      <point x="12" y="492" type="line"/>
      <point x="12" y="365" type="line"/>
      <point x="120" y="365" type="line"/>
      <point x="120" y="492" type="line"/>
    </contour>
    <contour>
      <point x="1" y="-124" type="line"/>
      <point x="71" y="-124" type="line"/>
      <point x="130" y="127" type="line"/>
      <point x="14" y="127" type="line"/>
    </contour>
  </outline>
</glyph>
<glyph name="question" format="1">
  <advance width="267"/>
  <unicode hex="003F"/>
  <outline>
    <contour>
      <point x="179" y="205" type="line"/>
      <point x="176" y="260"/>
      <point x="186" y="321"/>
      <point x="214" y="376" type="curve" smooth="yes"/>
      <point x="248" y="436"/>
      <point x="272" y="487"/>
      <point x="272" y="565" type="curve" smooth="yes"/>
      <point x="272" y="632"/>
      <point x="240" y="717"/>
      <point x="140" y="717" type="curve" smooth="yes"/>
      <point x="44" y="717"/>
      <point x="-4" y="645"/>
      <point x="-2" y="533" type="curve"/>
      <point x="109" y="533" type="line"/>
      <point x="108" y="597"/>
      <point x="116" y="644"/>
      <point x="137" y="644" type="curve" smooth="yes"/>
      <point x="151" y="644"/>
      <point x="162" y="622"/>
      <point x="162" y="560" type="curve" smooth="yes"/>
      <point x="162" y="512"/>
      <point x="151" y="479"/>
      <point x="129" y="418" type="curve" smooth="yes"/>
      <point x="90" y="326"/>
      <point x="85" y="261"/>
      <point x="90" y="205" type="curve"/>
    </contour>
    <contour>
      <point x="81" y="127" type="line"/>
      <point x="81" y="0" type="line"/>
      <point x="189" y="0" type="line"/>
      <point x="189" y="127" type="line"/>
    </contour>
  </outline>
</glyph>
<glyph name="at" format="1">
  <advance width="479"/>
  <unicode hex="0040"/>
  <outline>
    <contour>
      <point x="350" y="168" type="line"/>
      <point x="321" y="157"/>
      <point x="288" y="145"/>
      <point x="238" y="145" type="curve" smooth="yes"/>
      <point x="155" y="145"/>
      <point x="77" y="199"/>
      <point x="77" y="315" type="curve" smooth="yes"/>
      <point x="77" y="373"/>
      <point x="97" y="427"/>
      <point x="133" y="467" type="curve" smooth="yes"/>
      <point x="168" y="507"/>
      <point x="218" y="532"/>
      <point x="275" y="532" type="curve" smooth="yes"/>
      <point x="320" y="532"/>
      <point x="354" y="521"/>
      <point x="378" y="499" type="curve" smooth="yes"/>
      <point x="400" y="479"/>
      <point x="412" y="448"/>
      <point x="412" y="408" type="curve" smooth="yes"/>
      <point x="412" y="369"/>
      <point x="399" y="331"/>
      <point x="380" y="301" type="curve" smooth="yes"/>
      <point x="366" y="277"/>
      <point x="350" y="264"/>
      <point x="337" y="264" type="curve" smooth="yes"/>
      <point x="320" y="264"/>
      <point x="320" y="276"/>
      <point x="330" y="310" type="curve" smooth="yes"/>
      <point x="375" y="474" type="line"/>
      <point x="309" y="474" type="line"/>
      <point x="304" y="455" type="line"/>
      <point x="302" y="455" type="line"/>
      <point x="295" y="470"/>
      <point x="280" y="475"/>
      <point x="258" y="475" type="curve" smooth="yes"/>
      <point x="230" y="475"/>
      <point x="201" y="463"/>
      <point x="168" y="425" type="curve" smooth="yes"/>
      <point x="137" y="387"/>
      <point x="120" y="340"/>
      <point x="120" y="289" type="curve" smooth="yes"/>
      <point x="120" y="241"/>
      <point x="143" y="210"/>
      <point x="181" y="210" type="curve" smooth="yes"/>
      <point x="218" y="210"/>
      <point x="252" y="242"/>
      <point x="262" y="268" type="curve"/>
      <point x="265" y="268" type="line"/>
      <point x="262" y="254"/>
      <point x="265" y="237"/>
      <point x="273" y="226" type="curve" smooth="yes"/>
      <point x="285" y="214"/>
      <point x="300" y="210"/>
      <point x="322" y="210" type="curve" smooth="yes"/>
      <point x="353" y="210"/>
      <point x="390" y="224"/>
      <point x="425" y="262" type="curve" smooth="yes"/>
      <point x="457" y="298"/>
      <point x="476" y="349"/>
      <point x="476" y="406" type="curve" smooth="yes"/>
      <point x="476" y="510"/>
      <point x="413" y="592"/>
      <point x="276" y="592" type="curve" smooth="yes"/>
      <point x="115" y="592"/>
      <point x="5" y="464"/>
      <point x="5" y="321" type="curve" smooth="yes"/>
      <point x="5" y="161"/>
      <point x="117" y="85"/>
      <point x="228" y="85" type="curve" smooth="yes"/>
      <point x="287" y="85"/>
      <point x="342" y="100"/>
      <point x="377" y="126" type="curve"/>
    </contour>
    <contour>
      <point x="195" y="308" type="line"/>
      <point x="195" y="335"/>
      <point x="208" y="371"/>
      <point x="227" y="395" type="curve"/>
      <point x="242" y="417"/>
      <point x="258" y="422"/>
      <point x="271" y="422" type="curve" smooth="yes"/>
      <point x="285" y="422"/>
      <point x="291" y="415"/>
      <point x="291" y="407" type="curve" smooth="yes"/>
      <point x="291" y="402"/>
      <point x="281" y="371"/>
      <point x="275" y="349" type="curve" smooth="yes"/>
      <point x="267" y="323"/>
      <point x="238" y="281"/>
      <point x="211" y="281" type="curve" smooth="yes"/>
      <point x="198" y="281"/>
      <point x="195" y="291"/>
      <point x="195" y="307" type="curve"/>
    </contour>
  </outline>
</glyph>
<glyph name="A" format="1">
  <advance width="282"/>
  <unicode hex="0041"/>
  <outline>
    <contour>
      <point x="165" y="198" type="line"/>
      <point x="180" y="0" type="line"/>
      <point x="291" y="0" type="line"/>
      <point x="218" y="709" type="line"/>
      <point x="65" y="709" type="line"/>
      <point x="-4" y="0" type="line"/>
      <point x="107" y="0" type="line"/>
      <point x="118" y="198" type="line"/>
    </contour>
    <contour>
      <point x="164" y="279" type="line"/>
      <point x="118" y="279" type="line"/>
      <point x="129" y="454" type="line"/>
      <point x="133" y="509"/>
      <point x="136" y="563"/>
      <point x="138" y="633" type="curve"/>
      <point x="144" y="633" type="line"/>
      <point x="146" y="564"/>
      <point x="150" y="512"/>
      <point x="153" y="456" type="curve" smooth="yes"/>
    </contour>
  </outline>
</glyph>
<glyph name="B" format="1">
  <advance width="307"/>
  <unicode hex="0042"/>
  <outline>
    <contour>
      <point x="190" y="378" type="line"/>
      <point x="234" y="388"/>
      <point x="284" y="426"/>
      <point x="284" y="536" type="curve" smooth="yes"/>
      <point x="284" y="676"/>
      <point x="203" y="709"/>
      <point x="113" y="709" type="curve" smooth="yes"/>
      <point x="18" y="709" type="line"/>
      <point x="18" y="0" type="line"/>
      <point x="125" y="0" type="line"/>
      <point x="234" y="0"/>
      <point x="298" y="59"/>
      <point x="298" y="193" type="curve" smooth="yes"/>
      <point x="298" y="309"/>
      <point x="258" y="356"/>
      <point x="190" y="374" type="curve"/>
    </contour>
    <contour>
      <point x="182" y="201" type="curve" smooth="yes"/>
      <point x="182" y="117"/>
      <point x="168" y="82"/>
      <point x="131" y="82" type="curve" smooth="yes"/>
      <point x="132" y="82" type="line"/>
      <point x="132" y="332" type="line"/>
      <point x="132" y="332" type="line"/>
      <point x="171" y="332"/>
      <point x="182" y="279"/>
    </contour>
    <contour>
      <point x="175" y="523" type="curve" smooth="yes"/>
      <point x="175" y="447"/>
      <point x="158" y="414"/>
      <point x="133" y="414" type="curve" smooth="yes"/>
      <point x="132" y="414" type="line"/>
      <point x="132" y="628" type="line"/>
      <point x="131" y="628" type="line"/>
      <point x="155" y="628"/>
      <point x="175" y="599"/>
    </contour>
  </outline>
</glyph>
<glyph name="C" format="1">
  <advance width="299"/>
  <unicode hex="0043"/>
  <outline>
    <contour>
      <point x="182" y="219" type="line"/>
      <point x="183" y="125"/>
      <point x="180" y="67"/>
      <point x="160" y="67" type="curve" smooth="yes"/>
      <point x="144" y="67"/>
      <point x="131" y="113"/>
      <point x="131" y="353" type="curve" smooth="yes"/>
      <point x="131" y="589"/>
      <point x="145" y="642"/>
      <point x="160" y="642" type="curve" smooth="yes"/>
      <point x="176" y="642"/>
      <point x="180" y="604"/>
      <point x="179" y="501" type="curve"/>
      <point x="284" y="500" type="line"/>
      <point x="286" y="677"/>
      <point x="219" y="723"/>
      <point x="161" y="723" type="curve" smooth="yes"/>
      <point x="110" y="723"/>
      <point x="79" y="695"/>
      <point x="57" y="645" type="curve" smooth="yes"/>
      <point x="25" y="582"/>
      <point x="15" y="485"/>
      <point x="15" y="361" type="curve" smooth="yes"/>
      <point x="15" y="207"/>
      <point x="31" y="115"/>
      <point x="58" y="61" type="curve" smooth="yes"/>
      <point x="82" y="7"/>
      <point x="119" y="-14"/>
      <point x="162" y="-14" type="curve" smooth="yes"/>
      <point x="226" y="-14"/>
      <point x="292" y="59"/>
      <point x="289" y="220" type="curve"/>
    </contour>
  </outline>
</glyph>
<glyph name="D" format="1">
  <advance width="305"/>
  <unicode hex="0044"/>
  <outline>
    <contour>
      <point x="296" y="358" type="curve" smooth="yes"/>
      <point x="296" y="644"/>
      <point x="224" y="709"/>
      <point x="122" y="709" type="curve" smooth="yes"/>
      <point x="18" y="709" type="line"/>
      <point x="18" y="0" type="line"/>
      <point x="122" y="0" type="line"/>
      <point x="247" y="0"/>
      <point x="296" y="98"/>
    </contour>
    <contour>
      <point x="180" y="354" type="curve" smooth="yes"/>
      <point x="180" y="129"/>
      <point x="163" y="82"/>
      <point x="129" y="82" type="curve" smooth="yes"/>
      <point x="132" y="82" type="line"/>
      <point x="132" y="628" type="line"/>
      <point x="130" y="628" type="line"/>
      <point x="164" y="628"/>
      <point x="180" y="546"/>
    </contour>
  </outline>
</glyph>
<glyph name="E" format="1">
  <advance width="226"/>
  <unicode hex="0045"/>
  <outline>
    <contour>
      <point x="132" y="375" type="line"/>
      <point x="132" y="628" type="line"/>
      <point x="215" y="628" type="line"/>
      <point x="215" y="709" type="line"/>
      <point x="18" y="709" type="line"/>
      <point x="18" y="0" type="line"/>
      <point x="218" y="0" type="line"/>
      <point x="218" y="82" type="line"/>
      <point x="132" y="82" type="line"/>
      <point x="132" y="294" type="line"/>
      <point x="201" y="294" type="line"/>
      <point x="201" y="375" type="line"/>
    </contour>
  </outline>
</glyph>
<glyph name="F" format="1">
  <advance width="229"/>
  <unicode hex="0046"/>
  <outline>
    <contour>
      <point x="132" y="0" type="line"/>
      <point x="132" y="324" type="line"/>
      <point x="199" y="324" type="line"/>
      <point x="199" y="406" type="line"/>
      <point x="132" y="406" type="line"/>
      <point x="132" y="628" type="line"/>
      <point x="222" y="628" type="line"/>
      <point x="222" y="709" type="line"/>
      <point x="18" y="709" type="line"/>
      <point x="18" y="0" type="line"/>
    </contour>
  </outline>
</glyph>
<glyph name="G" format="1">
  <advance width="301"/>
  <unicode hex="0047"/>
  <outline>
    <contour>
      <point x="285" y="343" type="line"/>
      <point x="160" y="343" type="line"/>
      <point x="160" y="261" type="line"/>
      <point x="182" y="261" type="line"/>
      <point x="182" y="84" type="line"/>
      <point x="179" y="76"/>
      <point x="173" y="67"/>
      <point x="165" y="67" type="curve" smooth="yes"/>
      <point x="138" y="67"/>
      <point x="131" y="144"/>
      <point x="131" y="355" type="curve" smooth="yes"/>
      <point x="131" y="565"/>
      <point x="139" y="642"/>
      <point x="159" y="642" type="curve" smooth="yes"/>
      <point x="176" y="642"/>
      <point x="180" y="609"/>
      <point x="180" y="503" type="curve"/>
      <point x="286" y="501" type="line"/>
      <point x="288" y="638"/>
      <point x="254" y="723"/>
      <point x="160" y="723" type="curve" smooth="yes"/>
      <point x="57" y="723"/>
      <point x="15" y="629"/>
      <point x="15" y="361" type="curve" smooth="yes"/>
      <point x="15" y="111"/>
      <point x="40" y="-14"/>
      <point x="164" y="-14" type="curve" smooth="yes"/>
      <point x="223" y="-14"/>
      <point x="267" y="30"/>
      <point x="285" y="70" type="curve"/>
    </contour>
  </outline>
</glyph>
<glyph name="H" format="1">
  <advance width="317"/>
  <unicode hex="0048"/>
  <outline>
    <contour>
      <point x="300" y="709" type="line"/>
      <point x="186" y="709" type="line"/>
      <point x="186" y="409" type="line"/>
      <point x="132" y="409" type="line"/>
      <point x="132" y="709" type="line"/>
      <point x="18" y="709" type="line"/>
      <point x="18" y="0" type="line"/>
      <point x="132" y="0" type="line"/>
      <point x="132" y="327" type="line"/>
      <point x="186" y="327" type="line"/>
      <point x="186" y="0" type="line"/>
      <point x="300" y="0" type="line"/>
    </contour>
  </outline>
</glyph>
<glyph name="J" format="1">
  <advance width="186"/>
  <unicode hex="004A"/>
  <outline>
    <contour>
      <point x="11" y="-6" type="line"/>
      <point x="23" y="-10"/>
      <point x="38" y="-14"/>
      <point x="63" y="-14" type="curve" smooth="yes"/>
      <point x="133" y="-14"/>
      <point x="168" y="32"/>
      <point x="168" y="161" type="curve" smooth="yes"/>
      <point x="168" y="709" type="line"/>
      <point x="54" y="709" type="line"/>
      <point x="54" y="150" type="line"/>
      <point x="54" y="82"/>
      <point x="48" y="67"/>
      <point x="35" y="67" type="curve" smooth="yes"/>
      <point x="29" y="67"/>
      <point x="23" y="71"/>
      <point x="19" y="75" type="curve"/>
    </contour>
  </outline>
</glyph>
<glyph name="K" format="1">
  <advance width="330"/>
  <unicode hex="004B"/>
  <outline>
    <contour>
      <point x="129" y="373" type="line"/>
      <point x="131" y="427"/>
      <point x="132" y="463"/>
      <point x="132" y="530" type="curve" smooth="yes"/>
      <point x="132" y="709" type="line"/>
      <point x="18" y="709" type="line"/>
      <point x="18" y="0" type="line"/>
      <point x="132" y="0" type="line"/>
      <point x="132" y="218" type="line"/>
      <point x="151" y="293" type="line"/>
      <point x="223" y="0" type="line"/>
      <point x="340" y="0" type="line"/>
      <point x="213" y="402" type="line"/>
      <point x="325" y="709" type="line"/>
      <point x="216" y="709" type="line"/>
      <point x="168" y="530" type="line"/>
      <point x="151" y="462"/>
      <point x="143" y="429"/>
      <point x="133" y="373" type="curve"/>
    </contour>
  </outline>
</glyph>
<glyph name="L" format="1">
  <advance width="208"/>
  <unicode hex="004C"/>
  <outline>
    <contour>
      <point x="202" y="82" type="line"/>
      <point x="132" y="82" type="line"/>
      <point x="132" y="709" type="line"/>
      <point x="18" y="709" type="line"/>
      <point x="18" y="0" type="line"/>
      <point x="202" y="0" type="line"/>
    </contour>
  </outline>
</glyph>
<glyph name="M" format="1">
  <advance width="439"/>
  <unicode hex="004D"/>
  <outline>
    <contour>
      <point x="218" y="140" type="line"/>
      <point x="216" y="260"/>
      <point x="204" y="423"/>
      <point x="178" y="709" type="curve"/>
      <point x="18" y="709" type="line"/>
      <point x="18" y="0" type="line"/>
      <point x="117" y="0" type="line"/>
      <point x="117" y="293"/>
      <point x="116" y="493"/>
      <point x="110" y="601" type="curve"/>
      <point x="113" y="601" type="line"/>
      <point x="119" y="493"/>
      <point x="136" y="294"/>
      <point x="161" y="0" type="curve"/>
      <point x="278" y="0" type="line"/>
      <point x="304" y="298"/>
      <point x="320" y="494"/>
      <point x="326" y="601" type="curve"/>
      <point x="328" y="601" type="line"/>
      <point x="324" y="493"/>
      <point x="323" y="294"/>
      <point x="323" y="0" type="curve"/>
      <point x="421" y="0" type="line"/>
      <point x="421" y="709" type="line"/>
      <point x="261" y="709" type="line"/>
      <point x="234" y="426"/>
      <point x="223" y="260"/>
      <point x="221" y="140" type="curve"/>
    </contour>
  </outline>
</glyph>
<glyph name="N" format="1">
  <advance width="339"/>
  <unicode hex="004E"/>
  <outline>
    <contour>
      <point x="228" y="176" type="line"/>
      <point x="221" y="265"/>
      <point x="194" y="451"/>
      <point x="152" y="709" type="curve"/>
      <point x="18" y="709" type="line"/>
      <point x="18" y="0" type="line"/>
      <point x="117" y="0" type="line"/>
      <point x="117" y="262"/>
      <point x="113" y="446"/>
      <point x="108" y="534" type="curve"/>
      <point x="113" y="534" type="line"/>
      <point x="118" y="447"/>
      <point x="146" y="265"/>
      <point x="188" y="0" type="curve"/>
      <point x="321" y="0" type="line"/>
      <point x="321" y="709" type="line"/>
      <point x="223" y="709" type="line"/>
      <point x="223" y="452"/>
      <point x="226" y="266"/>
      <point x="232" y="176" type="curve"/>
    </contour>
  </outline>
</glyph>
<glyph name="O" format="1">
  <advance width="324"/>
  <unicode hex="004F"/>
  <outline>
    <contour>
      <point x="15" y="355" type="line"/>
      <point x="15" y="88"/>
      <point x="59" y="-14"/>
      <point x="162" y="-14" type="curve" smooth="yes"/>
      <point x="265" y="-14"/>
      <point x="308" y="88"/>
      <point x="308" y="355" type="curve" smooth="yes"/>
      <point x="308" y="622"/>
      <point x="265" y="723"/>
      <point x="162" y="723" type="curve" smooth="yes"/>
      <point x="59" y="723"/>
      <point x="15" y="622"/>
      <point x="15" y="356" type="curve"/>
    </contour>
    <contour>
      <point x="162" y="642" type="line"/>
      <point x="183" y="642"/>
      <point x="192" y="583"/>
      <point x="192" y="354" type="curve" smooth="yes"/>
      <point x="192" y="126"/>
      <point x="183" y="67"/>
      <point x="162" y="67" type="curve" smooth="yes"/>
      <point x="141" y="67"/>
      <point x="131" y="126"/>
      <point x="131" y="354" type="curve" smooth="yes"/>
      <point x="131" y="583"/>
      <point x="141" y="642"/>
      <point x="161" y="642" type="curve"/>
    </contour>
  </outline>
</glyph>
<glyph name="P" format="1">
  <advance width="306"/>
  <unicode hex="0050"/>
  <outline>
    <contour>
      <point x="132" y="0" type="line"/>
      <point x="132" y="284" type="line"/>
      <point x="132" y="284" type="line"/>
      <point x="229" y="284"/>
      <point x="298" y="342"/>
      <point x="298" y="499" type="curve" smooth="yes"/>
      <point x="298" y="641"/>
      <point x="241" y="709"/>
      <point x="129" y="709" type="curve" smooth="yes"/>
      <point x="18" y="709" type="line"/>
      <point x="18" y="0" type="line"/>
    </contour>
    <contour>
      <point x="132" y="366" type="curve" smooth="yes"/>
      <point x="132" y="628" type="line"/>
      <point x="136" y="628" type="line"/>
      <point x="163" y="628"/>
      <point x="182" y="599"/>
      <point x="182" y="499" type="curve" smooth="yes"/>
      <point x="182" y="393"/>
      <point x="161" y="367"/>
      <point x="134" y="366" type="curve" smooth="yes"/>
      <point x="133" y="366"/>
      <point x="132" y="366"/>
    </contour>
  </outline>
</glyph>
<glyph name="Q" format="1">
  <advance width="324"/>
  <unicode hex="0051"/>
  <outline>
    <contour>
      <point x="264" y="46" type="line"/>
      <point x="295" y="102"/>
      <point x="308" y="201"/>
      <point x="308" y="355" type="curve" smooth="yes"/>
      <point x="308" y="622"/>
      <point x="265" y="723"/>
      <point x="162" y="723" type="curve" smooth="yes"/>
      <point x="59" y="723"/>
      <point x="15" y="622"/>
      <point x="15" y="355" type="curve" smooth="yes"/>
      <point x="15" y="88"/>
      <point x="59" y="-14"/>
      <point x="162" y="-14" type="curve" smooth="yes"/>
      <point x="179" y="-14"/>
      <point x="195" y="-9"/>
      <point x="208" y="3" type="curve"/>
      <point x="267" y="-114" type="line"/>
      <point x="341" y="-58" type="line"/>
    </contour>
    <contour>
      <point x="162" y="642" type="line"/>
      <point x="183" y="642"/>
      <point x="192" y="583"/>
      <point x="192" y="354" type="curve" smooth="yes"/>
      <point x="192" y="126"/>
      <point x="183" y="67"/>
      <point x="162" y="67" type="curve" smooth="yes"/>
      <point x="141" y="67"/>
      <point x="131" y="126"/>
      <point x="131" y="354" type="curve" smooth="yes"/>
      <point x="131" y="583"/>
      <point x="141" y="642"/>
      <point x="161" y="642" type="curve"/>
    </contour>
  </outline>
</glyph>
<glyph name="R" format="1">
  <advance width="316"/>
  <unicode hex="0052"/>
  <outline>
    <contour>
      <point x="330" y="0" type="line"/>
      <point x="214" y="0" type="line"/>
      <point x="131" y="298" type="line"/>
      <point x="132" y="298" type="line"/>
      <point x="132" y="0" type="line"/>
      <point x="18" y="0" type="line"/>
      <point x="18" y="709" type="line"/>
      <point x="123" y="709" type="line"/>
      <point x="212" y="709"/>
      <point x="298" y="668"/>
      <point x="298" y="501" type="curve" smooth="yes"/>
      <point x="298" y="373"/>
      <point x="250" y="335"/>
      <point x="216" y="321" type="curve"/>
    </contour>
    <contour>
      <point x="129" y="378" type="line"/>
      <point x="151" y="378"/>
      <point x="169" y="396"/>
      <point x="169" y="460" type="curve"/>
      <point x="179" y="525"/>
      <point x="167" y="556"/>
      <point x="147" y="585" type="curve" smooth="yes"/>
      <point x="147" y="611"/>
      <point x="143" y="628"/>
      <point x="131" y="628" type="curve" smooth="yes"/>
      <point x="131" y="460" type="line"/>
    </contour>
  </outline>
</glyph>
<glyph name="S" format="1">
  <advance width="298"/>
  <unicode hex="0053"/>
  <outline>
    <contour>
      <point x="284" y="566" type="line"/>
      <point x="285" y="649"/>
      <point x="251" y="723"/>
      <point x="155" y="723" type="curve" smooth="yes"/>
      <point x="105" y="723"/>
      <point x="73" y="699"/>
      <point x="50" y="667" type="curve" smooth="yes"/>
      <point x="27" y="638"/>
      <point x="17" y="598"/>
      <point x="17" y="555" type="curve" smooth="yes"/>
      <point x="17" y="505"/>
      <point x="29" y="462"/>
      <point x="43" y="430" type="curve" smooth="yes"/>
      <point x="59" y="399"/>
      <point x="82" y="366"/>
      <point x="109" y="324" type="curve" smooth="yes"/>
      <point x="137" y="281"/>
      <point x="149" y="262"/>
      <point x="158" y="244" type="curve" smooth="yes"/>
      <point x="169" y="220"/>
      <point x="176" y="196"/>
      <point x="176" y="163" type="curve" smooth="yes"/>
      <point x="176" y="143"/>
      <point x="175" y="119"/>
      <point x="171" y="103" type="curve" smooth="yes"/>
      <point x="168" y="88"/>
      <point x="159" y="67"/>
      <point x="144" y="67" type="curve" smooth="yes"/>
      <point x="114" y="67"/>
      <point x="113" y="113"/>
      <point x="114" y="152" type="curve"/>
      <point x="7" y="152" type="line"/>
      <point x="6" y="58"/>
      <point x="42" y="-14"/>
      <point x="148" y="-14" type="curve" smooth="yes"/>
      <point x="212" y="-14"/>
      <point x="243" y="27"/>
      <point x="262" y="58" type="curve" smooth="yes"/>
      <point x="285" y="92"/>
      <point x="292" y="137"/>
      <point x="292" y="177" type="curve" smooth="yes"/>
      <point x="292" y="233"/>
      <point x="274" y="273"/>
      <point x="259" y="304" type="curve" smooth="yes"/>
      <point x="247" y="328"/>
      <point x="228" y="352"/>
      <point x="203" y="394" type="curve" smooth="yes"/>
      <point x="182" y="429"/>
      <point x="170" y="450"/>
      <point x="153" y="475" type="curve" smooth="yes"/>
      <point x="135" y="501"/>
      <point x="130" y="532"/>
      <point x="130" y="563" type="curve" smooth="yes"/>
      <point x="130" y="581"/>
      <point x="131" y="600"/>
      <point x="135" y="613" type="curve" smooth="yes"/>
      <point x="139" y="628"/>
      <point x="146" y="642"/>
      <point x="157" y="642" type="curve" smooth="yes"/>
      <point x="183" y="642"/>
      <point x="184" y="596"/>
      <point x="183" y="567" type="curve"/>
    </contour>
  </outline>
</glyph>
<glyph name="T" format="1">
  <advance width="263"/>
  <unicode hex="0054"/>
  <outline>
    <contour>
      <point x="258" y="709" type="line"/>
      <point x="5" y="709" type="line"/>
      <point x="5" y="628" type="line"/>
      <point x="75" y="628" type="line"/>
      <point x="75" y="0" type="line"/>
      <point x="188" y="0" type="line"/>
      <point x="188" y="628" type="line"/>
      <point x="258" y="628" type="line"/>
    </contour>
  </outline>
</glyph>
<glyph name="U" format="1">
  <advance width="322"/>
  <unicode hex="0055"/>
  <outline>
    <contour>
      <point x="306" y="709" type="line"/>
      <point x="192" y="709" type="line"/>
      <point x="192" y="176" type="line"/>
      <point x="192" y="114"/>
      <point x="190" y="67"/>
      <point x="160" y="67" type="curve" smooth="yes"/>
      <point x="133" y="67"/>
      <point x="130" y="116"/>
      <point x="130" y="176" type="curve" smooth="yes"/>
      <point x="130" y="709" type="line"/>
      <point x="16" y="709" type="line"/>
      <point x="16" y="167" type="line"/>
      <point x="16" y="67"/>
      <point x="33" y="-14"/>
      <point x="160" y="-14" type="curve" smooth="yes"/>
      <point x="293" y="-14"/>
      <point x="306" y="71"/>
      <point x="306" y="165" type="curve" smooth="yes"/>
    </contour>
  </outline>
</glyph>
<glyph name="V" format="1">
  <advance width="294"/>
  <unicode hex="0056"/>
  <outline>
    <contour>
      <point x="145" y="75" type="line"/>
      <point x="140" y="177"/>
      <point x="135" y="250"/>
      <point x="130" y="325" type="curve" smooth="yes"/>
      <point x="107" y="709" type="line"/>
      <point x="-4" y="709" type="line"/>
      <point x="74" y="0" type="line"/>
      <point x="220" y="0" type="line"/>
      <point x="298" y="709" type="line"/>
      <point x="186" y="709" type="line"/>
      <point x="164" y="327" type="line"/>
      <point x="159" y="252"/>
      <point x="154" y="177"/>
      <point x="151" y="75" type="curve"/>
    </contour>
  </outline>
</glyph>
<glyph name="W" format="1">
  <advance width="454"/>
  <unicode hex="0057"/>
  <outline>
    <contour>
      <point x="230" y="610" type="line"/>
      <point x="231" y="476"/>
      <point x="234" y="384"/>
      <point x="238" y="286" type="curve" smooth="yes"/>
      <point x="250" y="0" type="line"/>
      <point x="393" y="0" type="line"/>
      <point x="460" y="709" type="line"/>
      <point x="355" y="709" type="line"/>
      <point x="340" y="407" type="line"/>
      <point x="335" y="312"/>
      <point x="331" y="218"/>
      <point x="327" y="99" type="curve"/>
      <point x="323" y="99" type="line"/>
      <point x="321" y="220"/>
      <point x="318" y="313"/>
      <point x="315" y="408" type="curve" smooth="yes"/>
      <point x="304" y="709" type="line"/>
      <point x="151" y="709" type="line"/>
      <point x="141" y="411" type="line"/>
      <point x="137" y="317"/>
      <point x="134" y="221"/>
      <point x="134" y="99" type="curve"/>
      <point x="130" y="99" type="line"/>
      <point x="125" y="217"/>
      <point x="120" y="314"/>
      <point x="115" y="411" type="curve" smooth="yes"/>
      <point x="100" y="709" type="line"/>
      <point x="-6" y="709" type="line"/>
      <point x="63" y="0" type="line"/>
      <point x="205" y="0" type="line"/>
      <point x="217" y="279" type="line"/>
      <point x="220" y="377"/>
      <point x="224" y="474"/>
      <point x="225" y="610" type="curve"/>
    </contour>
  </outline>
</glyph>
<glyph name="X" format="1">
  <advance width="285"/>
  <unicode hex="0058"/>
  <outline>
    <contour>
      <point x="143" y="418" type="line"/>
      <point x="141" y="418" type="line"/>
      <point x="102" y="709" type="line"/>
      <point x="-9" y="709" type="line"/>
      <point x="79" y="366" type="line"/>
      <point x="-10" y="0" type="line"/>
      <point x="100" y="0" type="line"/>
      <point x="141" y="289" type="line"/>
      <point x="143" y="289" type="line"/>
      <point x="185" y="0" type="line"/>
      <point x="293" y="0" type="line"/>
      <point x="205" y="366" type="line"/>
      <point x="292" y="709" type="line"/>
      <point x="182" y="709" type="line"/>
    </contour>
  </outline>
</glyph>
<glyph name="Y" format="1">
  <advance width="277"/>
  <unicode hex="0059"/>
  <outline>
    <contour>
      <point x="284" y="709" type="line"/>
      <point x="168" y="709" type="line"/>
      <point x="155" y="539" type="line"/>
      <point x="150" y="479"/>
      <point x="145" y="417"/>
      <point x="142" y="340" type="curve"/>
      <point x="140" y="340" type="line"/>
      <point x="135" y="416"/>
      <point x="130" y="476"/>
      <point x="124" y="537" type="curve" smooth="yes"/>
      <point x="109" y="709" type="line"/>
      <point x="-8" y="709" type="line"/>
      <point x="84" y="277" type="line"/>
      <point x="84" y="0" type="line"/>
      <point x="198" y="0" type="line"/>
      <point x="198" y="277" type="line"/>
    </contour>
  </outline>
</glyph>
<glyph name="Z" format="1">
  <advance width="229"/>
  <unicode hex="005A"/>
  <outline>
    <contour>
      <point x="4" y="0" type="line"/>
      <point x="224" y="0" type="line"/>
      <point x="224" y="82" type="line"/>
      <point x="108" y="82" type="line"/>
      <point x="221" y="643" type="line"/>
      <point x="221" y="709" type="line"/>
      <point x="12" y="709" type="line"/>
      <point x="12" y="628" type="line"/>
      <point x="121" y="628" type="line"/>
      <point x="4" y="64" type="line"/>
    </contour>
  </outline>
</glyph>
<glyph name="bracketleft" format="1">
  <advance width="164"/>
  <unicode hex="005B"/>
  <outline>
    <contour>
      <point x="179" y="-156" type="line"/>
      <point x="179" y="-75" type="line"/>
      <point x="135" y="-75" type="line"/>
      <point x="135" y="658" type="line"/>
      <point x="179" y="658" type="line"/>
      <point x="179" y="739" type="line"/>
      <point x="28" y="739" type="line"/>
      <point x="28" y="-156" type="line"/>
    </contour>
  </outline>
</glyph>
<glyph name="backslash" format="1">
  <advance width="219"/>
  <unicode hex="005C"/>
  <outline>
    <contour>
      <point x="-8" y="739" type="line"/>
      <point x="141" y="-12" type="line"/>
      <point x="228" y="-12" type="line"/>
      <point x="79" y="739" type="line"/>
    </contour>
  </outline>
</glyph>
<glyph name="bracketright" format="1">
  <advance width="162"/>
  <unicode hex="005D"/>
  <outline>
    <contour>
      <point x="-15" y="-156" type="line"/>
      <point x="137" y="-156" type="line"/>
      <point x="137" y="739" type="line"/>
      <point x="-15" y="739" type="line"/>
      <point x="-15" y="658" type="line"/>
      <point x="29" y="658" type="line"/>
      <point x="29" y="-75" type="line"/>
      <point x="-15" y="-75" type="line"/>
    </contour>
  </outline>
</glyph>
<glyph name="a" format="1">
  <advance width="304"/>
  <unicode hex="0061"/>
  <outline>
    <contour>
      <point x="294" y="0" type="line"/>
      <point x="294" y="5" type="line"/>
      <point x="285" y="11"/>
      <point x="283" y="39"/>
      <point x="283" y="75" type="curve" smooth="yes"/>
      <point x="283" y="347" type="line"/>
      <point x="283" y="508"/>
      <point x="233" y="544"/>
      <point x="154" y="544" type="curve" smooth="yes"/>
      <point x="52" y="544"/>
      <point x="26" y="466"/>
      <point x="27" y="391" type="curve"/>
      <point x="128" y="391" type="line"/>
      <point x="127" y="430"/>
      <point x="132" y="475"/>
      <point x="152" y="475" type="curve" smooth="yes"/>
      <point x="175" y="475"/>
      <point x="175" y="430"/>
      <point x="175" y="364" type="curve" smooth="yes"/>
      <point x="175" y="345" type="line"/>
      <point x="45" y="307"/>
      <point x="14" y="222"/>
      <point x="14" y="133" type="curve" smooth="yes"/>
      <point x="14" y="36"/>
      <point x="50" y="-12"/>
      <point x="113" y="-12" type="curve" smooth="yes"/>
      <point x="151" y="-12"/>
      <point x="169" y="12"/>
      <point x="178" y="22" type="curve"/>
      <point x="180" y="22" type="line"/>
      <point x="182" y="16"/>
      <point x="184" y="6"/>
      <point x="188" y="0" type="curve"/>
    </contour>
    <contour>
      <point x="175" y="102" type="line"/>
      <point x="170" y="82"/>
      <point x="161" y="67"/>
      <point x="149" y="67" type="curve" smooth="yes"/>
      <point x="133" y="67"/>
      <point x="124" y="92"/>
      <point x="124" y="144" type="curve" smooth="yes"/>
      <point x="124" y="195"/>
      <point x="134" y="256"/>
      <point x="175" y="277" type="curve"/>
    </contour>
  </outline>
</glyph>
<glyph name="b" format="1">
  <advance width="304"/>
  <unicode hex="0062"/>
  <outline>
    <contour>
      <point x="18" y="0" type="line"/>
      <point x="125" y="0" type="line"/>
      <point x="125" y="34" type="line"/>
      <point x="127" y="34" type="line"/>
      <point x="140" y="12"/>
      <point x="159" y="-12"/>
      <point x="188" y="-12" type="curve" smooth="yes"/>
      <point x="265" y="-12"/>
      <point x="289" y="102"/>
      <point x="289" y="266" type="curve" smooth="yes"/>
      <point x="289" y="457"/>
      <point x="256" y="544"/>
      <point x="188" y="544" type="curve" smooth="yes"/>
      <point x="157" y="544"/>
      <point x="140" y="519"/>
      <point x="128" y="500" type="curve"/>
      <point x="126" y="500" type="line"/>
      <point x="126" y="727" type="line"/>
      <point x="18" y="727" type="line"/>
    </contour>
    <contour>
      <point x="126" y="404" type="line"/>
      <point x="129" y="425"/>
      <point x="136" y="454"/>
      <point x="149" y="454" type="curve" smooth="yes"/>
      <point x="166" y="454"/>
      <point x="178" y="403"/>
      <point x="179" y="263" type="curve" smooth="yes"/>
      <point x="179" y="131"/>
      <point x="165" y="78"/>
      <point x="149" y="78" type="curve" smooth="yes"/>
      <point x="137" y="78"/>
      <point x="130" y="106"/>
      <point x="126" y="137" type="curve"/>
    </contour>
  </outline>
</glyph>
<glyph name="c" format="1">
  <advance width="291"/>
  <unicode hex="0063"/>
  <outline>
    <contour>
      <point x="277" y="384" type="line"/>
      <point x="279" y="486"/>
      <point x="233" y="544"/>
      <point x="154" y="544" type="curve" smooth="yes"/>
      <point x="62" y="544"/>
      <point x="15" y="456"/>
      <point x="15" y="268" type="curve" smooth="yes"/>
      <point x="15" y="84"/>
      <point x="43" y="-12"/>
      <point x="153" y="-12" type="curve" smooth="yes"/>
      <point x="236" y="-12"/>
      <point x="281" y="50"/>
      <point x="279" y="164" type="curve"/>
      <point x="171" y="162" type="line"/>
      <point x="173" y="98"/>
      <point x="167" y="62"/>
      <point x="153" y="62" type="curve" smooth="yes"/>
      <point x="132" y="62"/>
      <point x="126" y="102"/>
      <point x="126" y="267" type="curve" smooth="yes"/>
      <point x="126" y="414"/>
      <point x="134" y="471"/>
      <point x="154" y="471" type="curve" smooth="yes"/>
      <point x="171" y="471"/>
      <point x="173" y="436"/>
      <point x="171" y="385" type="curve"/>
    </contour>
  </outline>
</glyph>
<glyph name="d" format="1">
  <advance width="304"/>
  <unicode hex="0064"/>
  <outline>
    <contour>
      <point x="179" y="34" type="line"/>
      <point x="178" y="0" type="line"/>
      <point x="286" y="0" type="line"/>
      <point x="286" y="727" type="line"/>
      <point x="178" y="727" type="line"/>
      <point x="178" y="503" type="line"/>
      <point x="177" y="503" type="line"/>
      <point x="163" y="521"/>
      <point x="148" y="544"/>
      <point x="118" y="544" type="curve" smooth="yes"/>
      <point x="48" y="544"/>
      <point x="15" y="458"/>
      <point x="15" y="266" type="curve" smooth="yes"/>
      <point x="15" y="79"/>
      <point x="49" y="-12"/>
      <point x="116" y="-12" type="curve" smooth="yes"/>
      <point x="146" y="-12"/>
      <point x="164" y="9"/>
      <point x="178" y="34" type="curve"/>
    </contour>
    <contour>
      <point x="155" y="78" type="line"/>
      <point x="142" y="78"/>
      <point x="125" y="123"/>
      <point x="126" y="263" type="curve" smooth="yes"/>
      <point x="126" y="403"/>
      <point x="139" y="454"/>
      <point x="155" y="454" type="curve" smooth="yes"/>
      <point x="168" y="454"/>
      <point x="176" y="425"/>
      <point x="178" y="404" type="curve"/>
      <point x="178" y="137" type="line"/>
      <point x="175" y="105"/>
      <point x="167" y="78"/>
      <point x="156" y="78" type="curve"/>
    </contour>
  </outline>
</glyph>
<glyph name="e" format="1">
  <advance width="303"/>
  <unicode hex="0065"/>
  <outline>
    <contour>
      <point x="288" y="246" type="line"/>
      <point x="288" y="358"/>
      <point x="277" y="438"/>
      <point x="242" y="493" type="curve" smooth="yes"/>
      <point x="219" y="529"/>
      <point x="186" y="544"/>
      <point x="151" y="544" type="curve" smooth="yes"/>
      <point x="113" y="544"/>
      <point x="83" y="527"/>
      <point x="60" y="491" type="curve" smooth="yes"/>
      <point x="29" y="446"/>
      <point x="15" y="368"/>
      <point x="15" y="270" type="curve" smooth="yes"/>
      <point x="15" y="154"/>
      <point x="33" y="85"/>
      <point x="57" y="44" type="curve" smooth="yes"/>
      <point x="85" y="-1"/>
      <point x="123" y="-12"/>
      <point x="154" y="-12" type="curve" smooth="yes"/>
      <point x="197" y="-12"/>
      <point x="228" y="5"/>
      <point x="250" y="33" type="curve" smooth="yes"/>
      <point x="274" y="64"/>
      <point x="285" y="102"/>
      <point x="289" y="141" type="curve"/>
      <point x="182" y="140" type="line"/>
      <point x="182" y="86"/>
      <point x="175" y="57"/>
      <point x="157" y="57" type="curve" smooth="yes"/>
      <point x="133" y="57"/>
      <point x="125" y="98"/>
      <point x="126" y="246" type="curve"/>
    </contour>
    <contour>
      <point x="126" y="305" type="line"/>
      <point x="125" y="456"/>
      <point x="143" y="475"/>
      <point x="152" y="475" type="curve" smooth="yes"/>
      <point x="167" y="475"/>
      <point x="179" y="429"/>
      <point x="178" y="305" type="curve"/>
    </contour>
  </outline>
</glyph>
<glyph name="f" format="1">
  <advance width="149"/>
  <unicode hex="0066"/>
  <outline>
    <contour>
      <point x="166" y="733" type="line"/>
      <point x="162" y="734"/>
      <point x="157" y="736"/>
      <point x="150" y="737" type="curve" smooth="yes"/>
      <point x="143" y="738"/>
      <point x="133" y="739"/>
      <point x="122" y="739" type="curve" smooth="yes"/>
      <point x="90" y="739"/>
      <point x="65" y="728"/>
      <point x="48" y="710" type="curve" smooth="yes"/>
      <point x="25" y="684"/>
      <point x="17" y="637"/>
      <point x="17" y="570" type="curve" smooth="yes"/>
      <point x="17" y="532" type="line"/>
      <point x="-5" y="532" type="line"/>
      <point x="-5" y="458" type="line"/>
      <point x="17" y="458" type="line"/>
      <point x="17" y="0" type="line"/>
      <point x="125" y="0" type="line"/>
      <point x="125" y="458" type="line"/>
      <point x="147" y="458" type="line"/>
      <point x="147" y="532" type="line"/>
      <point x="125" y="532" type="line"/>
      <point x="125" y="576" type="line"/>
      <point x="125" y="618"/>
      <point x="127" y="642"/>
      <point x="134" y="653" type="curve" smooth="yes"/>
      <point x="138" y="659"/>
      <point x="142" y="662"/>
      <point x="146" y="662" type="curve" smooth="yes"/>
      <point x="149" y="662"/>
      <point x="152" y="661"/>
      <point x="154" y="660" type="curve" smooth="yes"/>
      <point x="156" y="660"/>
      <point x="159" y="658"/>
      <point x="161" y="657" type="curve"/>
    </contour>
  </outline>
</glyph>
<glyph name="g" format="1">
  <advance width="304"/>
  <unicode hex="0067"/>
  <outline>
    <contour>
      <point x="180" y="506" type="line"/>
      <point x="178" y="506" type="line"/>
      <point x="167" y="530"/>
      <point x="146" y="544"/>
      <point x="121" y="544" type="curve" smooth="yes"/>
      <point x="53" y="544"/>
      <point x="15" y="461"/>
      <point x="15" y="266" type="curve" smooth="yes"/>
      <point x="15" y="82"/>
      <point x="48" y="-12"/>
      <point x="117" y="-12" type="curve" smooth="yes"/>
      <point x="147" y="-12"/>
      <point x="165" y="1"/>
      <point x="176" y="17" type="curve"/>
      <point x="178" y="17" type="line"/>
      <point x="178" y="5" type="line"/>
      <point x="178" y="-78"/>
      <point x="177" y="-133"/>
      <point x="171" y="-161" type="curve" smooth="yes"/>
      <point x="167" y="-178"/>
      <point x="161" y="-188"/>
      <point x="153" y="-188" type="curve" smooth="yes"/>
      <point x="149" y="-188"/>
      <point x="141" y="-183"/>
      <point x="137" y="-170" type="curve" smooth="yes"/>
      <point x="134" y="-157"/>
      <point x="133" y="-140"/>
      <point x="132" y="-101" type="curve"/>
      <point x="27" y="-101" type="line"/>
      <point x="25" y="-158"/>
      <point x="38" y="-196"/>
      <point x="58" y="-221" type="curve" smooth="yes"/>
      <point x="82" y="-251"/>
      <point x="115" y="-261"/>
      <point x="152" y="-261" type="curve" smooth="yes"/>
      <point x="196" y="-261"/>
      <point x="230" y="-246"/>
      <point x="251" y="-210" type="curve" smooth="yes"/>
      <point x="277" y="-166"/>
      <point x="286" y="-108"/>
      <point x="286" y="-2" type="curve" smooth="yes"/>
      <point x="286" y="532" type="line"/>
      <point x="178" y="532" type="line"/>
    </contour>
    <contour>
      <point x="126" y="262" type="line"/>
      <point x="126" y="414"/>
      <point x="147" y="451"/>
      <point x="160" y="451" type="curve" smooth="yes"/>
      <point x="167" y="451"/>
      <point x="174" y="436"/>
      <point x="178" y="415" type="curve"/>
      <point x="178" y="116" type="line"/>
      <point x="177" y="97"/>
      <point x="170" y="82"/>
      <point x="159" y="82" type="curve" smooth="yes"/>
      <point x="136" y="82"/>
      <point x="126" y="141"/>
      <point x="126" y="261" type="curve"/>
    </contour>
  </outline>
</glyph>
<glyph name="i" format="1">
  <advance width="143"/>
  <unicode hex="0069"/>
  <outline>
    <contour>
      <point x="126" y="641" type="line"/>
      <point x="126" y="733" type="line"/>
      <point x="18" y="733" type="line"/>
      <point x="18" y="641" type="line"/>
    </contour>
    <contour>
      <point x="126" y="532" type="line"/>
      <point x="18" y="532" type="line"/>
      <point x="18" y="0" type="line"/>
      <point x="126" y="0" type="line"/>
    </contour>
  </outline>
</glyph>
<glyph name="j" format="1">
  <advance width="143"/>
  <unicode hex="006A"/>
  <outline>
    <contour>
      <point x="125" y="641" type="line"/>
      <point x="125" y="733" type="line"/>
      <point x="17" y="733" type="line"/>
      <point x="17" y="641" type="line"/>
    </contour>
    <contour>
      <point x="-49" y="-218" type="line"/>
      <point x="-38" y="-222"/>
      <point x="-28" y="-225"/>
      <point x="-19" y="-227" type="curve" smooth="yes"/>
      <point x="-7" y="-229"/>
      <point x="4" y="-230"/>
      <point x="16" y="-230" type="curve" smooth="yes"/>
      <point x="49" y="-230"/>
      <point x="76" y="-218"/>
      <point x="95" y="-187" type="curve" smooth="yes"/>
      <point x="117" y="-152"/>
      <point x="126" y="-97"/>
      <point x="126" y="-10" type="curve" smooth="yes"/>
      <point x="126" y="532" type="line"/>
      <point x="18" y="532" type="line"/>
      <point x="18" y="-43" type="line"/>
      <point x="18" y="-88"/>
      <point x="15" y="-118"/>
      <point x="8" y="-135" type="curve" smooth="yes"/>
      <point x="6" y="-143"/>
      <point x="-2" y="-151"/>
      <point x="-10" y="-151" type="curve" smooth="yes"/>
      <point x="-15" y="-151"/>
      <point x="-19" y="-149"/>
      <point x="-23" y="-148" type="curve" smooth="yes"/>
      <point x="-26" y="-146"/>
      <point x="-31" y="-143"/>
      <point x="-33" y="-140" type="curve"/>
    </contour>
  </outline>
</glyph>
<glyph name="k" format="1">
  <advance width="278"/>
  <unicode hex="006B"/>
  <outline>
    <contour>
      <point x="192" y="323" type="line"/>
      <point x="280" y="532" type="line"/>
      <point x="176" y="532" type="line"/>
      <point x="151" y="439" type="line"/>
      <point x="143" y="408"/>
      <point x="134" y="376"/>
      <point x="128" y="343" type="curve"/>
      <point x="124" y="343" type="line"/>
      <point x="126" y="379"/>
      <point x="126" y="405"/>
      <point x="126" y="440" type="curve" smooth="yes"/>
      <point x="126" y="727" type="line"/>
      <point x="18" y="727" type="line"/>
      <point x="18" y="0" type="line"/>
      <point x="126" y="0" type="line"/>
      <point x="126" y="202" type="line"/>
      <point x="134" y="228" type="line"/>
      <point x="172" y="0" type="line"/>
      <point x="289" y="0" type="line"/>
    </contour>
  </outline>
</glyph>
<glyph name="m" format="1">
  <advance width="444"/>
  <unicode hex="006D"/>
  <outline>
    <contour>
      <point x="428" y="0" type="line"/>
      <point x="428" y="399" type="line"/>
      <point x="428" y="457"/>
      <point x="420" y="491"/>
      <point x="404" y="514" type="curve" smooth="yes"/>
      <point x="392" y="534"/>
      <point x="372" y="544"/>
      <point x="346" y="544" type="curve" smooth="yes"/>
      <point x="329" y="544"/>
      <point x="314" y="538"/>
      <point x="302" y="529" type="curve" smooth="yes"/>
      <point x="287" y="518"/>
      <point x="277" y="502"/>
      <point x="271" y="487" type="curve"/>
      <point x="269" y="487" type="line"/>
      <point x="265" y="502"/>
      <point x="258" y="515"/>
      <point x="250" y="525" type="curve" smooth="yes"/>
      <point x="239" y="537"/>
      <point x="225" y="544"/>
      <point x="207" y="544" type="curve" smooth="yes"/>
      <point x="191" y="544"/>
      <point x="176" y="539"/>
      <point x="162" y="530" type="curve" smooth="yes"/>
      <point x="149" y="520"/>
      <point x="138" y="506"/>
      <point x="128" y="489" type="curve"/>
      <point x="125" y="489" type="line"/>
      <point x="126" y="532" type="line"/>
      <point x="18" y="532" type="line"/>
      <point x="18" y="0" type="line"/>
      <point x="126" y="0" type="line"/>
      <point x="126" y="398" type="line"/>
      <point x="130" y="415"/>
      <point x="134" y="427"/>
      <point x="138" y="437" type="curve" smooth="yes"/>
      <point x="141" y="446"/>
      <point x="145" y="453"/>
      <point x="151" y="453" type="curve" smooth="yes"/>
      <point x="156" y="453"/>
      <point x="159" y="447"/>
      <point x="162" y="438" type="curve" smooth="yes"/>
      <point x="167" y="421"/>
      <point x="169" y="389"/>
      <point x="169" y="349" type="curve" smooth="yes"/>
      <point x="169" y="0" type="line"/>
      <point x="277" y="0" type="line"/>
      <point x="277" y="401" type="line"/>
      <point x="280" y="417"/>
      <point x="283" y="428"/>
      <point x="287" y="437" type="curve" smooth="yes"/>
      <point x="291" y="446"/>
      <point x="295" y="453"/>
      <point x="300" y="453" type="curve" smooth="yes"/>
      <point x="307" y="453"/>
      <point x="310" y="447"/>
      <point x="312" y="438" type="curve" smooth="yes"/>
      <point x="319" y="422"/>
      <point x="320" y="383"/>
      <point x="320" y="349" type="curve" smooth="yes"/>
      <point x="320" y="0" type="line"/>
    </contour>
  </outline>
</glyph>
<glyph name="n" format="1">
  <advance width="299"/>
  <unicode hex="006E"/>
  <outline>
    <contour>
      <point x="283" y="0" type="line"/>
      <point x="283" y="400" type="line"/>
      <point x="283" y="456"/>
      <point x="275" y="492"/>
      <point x="262" y="514" type="curve" smooth="yes"/>
      <point x="249" y="535"/>
      <point x="227" y="544"/>
      <point x="204" y="544" type="curve" smooth="yes"/>
      <point x="186" y="544"/>
      <point x="170" y="537"/>
      <point x="157" y="526" type="curve" smooth="yes"/>
      <point x="146" y="516"/>
      <point x="137" y="502"/>
      <point x="130" y="492" type="curve"/>
      <point x="125" y="492" type="line"/>
      <point x="126" y="532" type="line"/>
      <point x="18" y="532" type="line"/>
      <point x="18" y="0" type="line"/>
      <point x="126" y="0" type="line"/>
      <point x="126" y="402" type="line"/>
      <point x="132" y="420"/>
      <point x="136" y="432"/>
      <point x="140" y="440" type="curve" smooth="yes"/>
      <point x="145" y="448"/>
      <point x="148" y="452"/>
      <point x="153" y="452" type="curve" smooth="yes"/>
      <point x="162" y="452"/>
      <point x="165" y="447"/>
      <point x="168" y="438" type="curve" smooth="yes"/>
      <point x="174" y="422"/>
      <point x="175" y="391"/>
      <point x="175" y="347" type="curve" smooth="yes"/>
      <point x="175" y="0" type="line"/>
    </contour>
  </outline>
</glyph>
<glyph name="o" format="1">
  <advance width="303"/>
  <unicode hex="006F"/>
  <outline>
    <contour>
      <point x="288" y="266" type="line"/>
      <point x="288" y="496"/>
      <point x="214" y="544"/>
      <point x="151" y="544" type="curve" smooth="yes"/>
      <point x="89" y="544"/>
      <point x="15" y="496"/>
      <point x="15" y="266" type="curve" smooth="yes"/>
      <point x="15" y="77"/>
      <point x="54" y="-12"/>
      <point x="151" y="-12" type="curve" smooth="yes"/>
      <point x="247" y="-12"/>
      <point x="288" y="79"/>
      <point x="288" y="265" type="curve"/>
    </contour>
    <contour>
      <point x="151" y="62" type="line"/>
      <point x="136" y="62"/>
      <point x="126" y="103"/>
      <point x="126" y="266" type="curve" smooth="yes"/>
      <point x="126" y="424"/>
      <point x="135" y="471"/>
      <point x="151" y="471" type="curve" smooth="yes"/>
      <point x="168" y="471"/>
      <point x="177" y="426"/>
      <point x="177" y="266" type="curve" smooth="yes"/>
      <point x="177" y="116"/>
      <point x="170" y="62"/>
      <point x="152" y="62" type="curve"/>
    </contour>
  </outline>
</glyph>
<glyph name="p" format="1">
  <advance width="304"/>
  <unicode hex="0070"/>
  <outline>
    <contour>
      <point x="18" y="-248" type="line"/>
      <point x="126" y="-248" type="line"/>
      <point x="126" y="26" type="line"/>
      <point x="128" y="26" type="line"/>
      <point x="136" y="13"/>
      <point x="143" y="5"/>
      <point x="154" y="-2" type="curve" smooth="yes"/>
      <point x="165" y="-10"/>
      <point x="178" y="-12"/>
      <point x="188" y="-12" type="curve" smooth="yes"/>
      <point x="216" y="-12"/>
      <point x="239" y="5"/>
      <point x="255" y="40" type="curve" smooth="yes"/>
      <point x="273" y="76"/>
      <point x="289" y="150"/>
      <point x="289" y="266" type="curve" smooth="yes"/>
      <point x="289" y="383"/>
      <point x="274" y="454"/>
      <point x="253" y="495" type="curve" smooth="yes"/>
      <point x="235" y="532"/>
      <point x="212" y="544"/>
      <point x="186" y="544" type="curve" smooth="yes"/>
      <point x="172" y="544"/>
      <point x="161" y="539"/>
      <point x="150" y="531" type="curve" smooth="yes"/>
      <point x="139" y="522"/>
      <point x="132" y="508"/>
      <point x="127" y="498" type="curve"/>
      <point x="125" y="498" type="line"/>
      <point x="126" y="532" type="line"/>
      <point x="18" y="532" type="line"/>
    </contour>
    <contour>
      <point x="126" y="404" type="line"/>
      <point x="129" y="425"/>
      <point x="134" y="438"/>
      <point x="138" y="445" type="curve" smooth="yes"/>
      <point x="142" y="452"/>
      <point x="145" y="454"/>
      <point x="149" y="454" type="curve" smooth="yes"/>
      <point x="157" y="454"/>
      <point x="162" y="444"/>
      <point x="168" y="422" type="curve" smooth="yes"/>
      <point x="176" y="394"/>
      <point x="179" y="344"/>
      <point x="179" y="263" type="curve" smooth="yes"/>
      <point x="179" y="165"/>
      <point x="172" y="121"/>
      <point x="165" y="102" type="curve" smooth="yes"/>
      <point x="161" y="86"/>
      <point x="155" y="78"/>
      <point x="149" y="78" type="curve" smooth="yes"/>
      <point x="143" y="78"/>
      <point x="139" y="83"/>
      <point x="134" y="92" type="curve" smooth="yes"/>
      <point x="130" y="101"/>
      <point x="128" y="113"/>
      <point x="126" y="128" type="curve"/>
    </contour>
  </outline>
</glyph>
<glyph name="q" format="1">
  <advance width="304"/>
  <unicode hex="0071"/>
  <outline>
    <contour>
      <point x="286" y="-248" type="line"/>
      <point x="286" y="532" type="line"/>
      <point x="178" y="532" type="line"/>
      <point x="179" y="499" type="line"/>
      <point x="178" y="499" type="line"/>
      <point x="173" y="508"/>
      <point x="164" y="522"/>
      <point x="154" y="531" type="curve" smooth="yes"/>
      <point x="145" y="539"/>
      <point x="133" y="544"/>
      <point x="118" y="544" type="curve" smooth="yes"/>
      <point x="92" y="544"/>
      <point x="70" y="532"/>
      <point x="52" y="495" type="curve" smooth="yes"/>
      <point x="30" y="454"/>
      <point x="15" y="384"/>
      <point x="15" y="266" type="curve" smooth="yes"/>
      <point x="15" y="166"/>
      <point x="28" y="82"/>
      <point x="49" y="40" type="curve" smooth="yes"/>
      <point x="68" y="4"/>
      <point x="89" y="-12"/>
      <point x="116" y="-12" type="curve" smooth="yes"/>
      <point x="127" y="-12"/>
      <point x="140" y="-10"/>
      <point x="152" y="0" type="curve" smooth="yes"/>
      <point x="161" y="6"/>
      <point x="169" y="14"/>
      <point x="177" y="28" type="curve"/>
      <point x="178" y="28" type="line"/>
      <point x="178" y="-248" type="line"/>
    </contour>
    <contour>
      <point x="178" y="128" type="line"/>
      <point x="177" y="113"/>
      <point x="175" y="101"/>
      <point x="171" y="93" type="curve" smooth="yes"/>
      <point x="166" y="83"/>
      <point x="161" y="78"/>
      <point x="155" y="78" type="curve" smooth="yes"/>
      <point x="150" y="78"/>
      <point x="144" y="86"/>
      <point x="138" y="104" type="curve" smooth="yes"/>
      <point x="132" y="123"/>
      <point x="126" y="166"/>
      <point x="126" y="263" type="curve" smooth="yes"/>
      <point x="126" y="325"/>
      <point x="128" y="388"/>
      <point x="135" y="418" type="curve" smooth="yes"/>
      <point x="141" y="444"/>
      <point x="147" y="454"/>
      <point x="155" y="454" type="curve" smooth="yes"/>
      <point x="159" y="454"/>
      <point x="163" y="452"/>
      <point x="166" y="445" type="curve" smooth="yes"/>
      <point x="170" y="438"/>
      <point x="175" y="425"/>
      <point x="178" y="404" type="curve"/>
    </contour>
  </outline>
</glyph>
<glyph name="r" format="1">
  <advance width="196"/>
  <unicode hex="0072"/>
  <outline>
    <contour>
      <point x="125" y="494" type="line"/>
      <point x="126" y="532" type="line"/>
      <point x="18" y="532" type="line"/>
      <point x="18" y="0" type="line"/>
      <point x="126" y="0" type="line"/>
      <point x="126" y="381" type="line"/>
      <point x="134" y="403"/>
      <point x="142" y="420"/>
      <point x="149" y="433" type="curve" smooth="yes"/>
      <point x="160" y="447"/>
      <point x="166" y="453"/>
      <point x="176" y="453" type="curve" smooth="yes"/>
      <point x="180" y="453"/>
      <point x="182" y="452"/>
      <point x="187" y="450" type="curve" smooth="yes"/>
      <point x="191" y="448"/>
      <point x="194" y="446"/>
      <point x="196" y="443" type="curve"/>
      <point x="202" y="536" type="line"/>
      <point x="198" y="539"/>
      <point x="195" y="541"/>
      <point x="190" y="542" type="curve" smooth="yes"/>
      <point x="186" y="543"/>
      <point x="181" y="544"/>
      <point x="175" y="544" type="curve" smooth="yes"/>
      <point x="163" y="544"/>
      <point x="153" y="538"/>
      <point x="146" y="530" type="curve" smooth="yes"/>
      <point x="138" y="520"/>
      <point x="132" y="507"/>
      <point x="127" y="494" type="curve"/>
    </contour>
  </outline>
</glyph>
<glyph name="s" format="1">
  <advance width="274"/>
  <unicode hex="0073"/>
  <outline>
    <contour>
      <point x="255" y="425" type="line"/>
      <point x="256" y="459"/>
      <point x="247" y="486"/>
      <point x="229" y="506" type="curve" smooth="yes"/>
      <point x="208" y="530"/>
      <point x="176" y="544"/>
      <point x="133" y="544" type="curve" smooth="yes"/>
      <point x="99" y="544"/>
      <point x="71" y="532"/>
      <point x="50" y="509" type="curve" smooth="yes"/>
      <point x="28" y="485"/>
      <point x="14" y="449"/>
      <point x="14" y="406" type="curve" smooth="yes"/>
      <point x="14" y="375"/>
      <point x="24" y="342"/>
      <point x="37" y="318" type="curve" smooth="yes"/>
      <point x="50" y="291"/>
      <point x="71" y="269"/>
      <point x="95" y="247" type="curve" smooth="yes"/>
      <point x="115" y="227"/>
      <point x="132" y="212"/>
      <point x="140" y="193" type="curve" smooth="yes"/>
      <point x="148" y="176"/>
      <point x="153" y="156"/>
      <point x="153" y="138" type="curve" smooth="yes"/>
      <point x="153" y="108"/>
      <point x="150" y="88"/>
      <point x="147" y="76" type="curve" smooth="yes"/>
      <point x="142" y="63"/>
      <point x="136" y="57"/>
      <point x="129" y="57" type="curve" smooth="yes"/>
      <point x="116" y="57"/>
      <point x="105" y="74"/>
      <point x="107" y="111" type="curve"/>
      <point x="11" y="112" type="line"/>
      <point x="9" y="73"/>
      <point x="24" y="37"/>
      <point x="48" y="18" type="curve" smooth="yes"/>
      <point x="69" y="-4"/>
      <point x="100" y="-12"/>
      <point x="135" y="-12" type="curve" smooth="yes"/>
      <point x="176" y="-12"/>
      <point x="210" y="6"/>
      <point x="233" y="35" type="curve" smooth="yes"/>
      <point x="254" y="64"/>
      <point x="264" y="103"/>
      <point x="264" y="147" type="curve" smooth="yes"/>
      <point x="264" y="192"/>
      <point x="254" y="220"/>
      <point x="239" y="242" type="curve" smooth="yes"/>
      <point x="225" y="267"/>
      <point x="200" y="290"/>
      <point x="179" y="314" type="curve" smooth="yes"/>
      <point x="155" y="339"/>
      <point x="141" y="350"/>
      <point x="133" y="366" type="curve" smooth="yes"/>
      <point x="124" y="379"/>
      <point x="120" y="399"/>
      <point x="120" y="416" type="curve" smooth="yes"/>
      <point x="120" y="436"/>
      <point x="122" y="453"/>
      <point x="127" y="463" type="curve" smooth="yes"/>
      <point x="130" y="470"/>
      <point x="135" y="475"/>
      <point x="141" y="475" type="curve" smooth="yes"/>
      <point x="157" y="475"/>
      <point x="163" y="450"/>
      <point x="162" y="425" type="curve"/>
    </contour>
  </outline>
</glyph>
<glyph name="t" format="1">
  <advance width="158"/>
  <unicode hex="0074"/>
  <outline>
    <contour>
      <point x="22" y="532" type="line"/>
      <point x="1" y="532" type="line"/>
      <point x="1" y="458" type="line"/>
      <point x="22" y="458" type="line"/>
      <point x="22" y="150" type="line"/>
      <point x="22" y="40"/>
      <point x="47" y="-12"/>
      <point x="115" y="-12" type="curve" smooth="yes"/>
      <point x="140" y="-12"/>
      <point x="149" y="-7"/>
      <point x="162" y="-2" type="curve"/>
      <point x="156" y="74" type="line"/>
      <point x="153" y="69"/>
      <point x="151" y="67"/>
      <point x="146" y="67" type="curve" smooth="yes"/>
      <point x="128" y="67"/>
      <point x="130" y="108"/>
      <point x="130" y="184" type="curve" smooth="yes"/>
      <point x="130" y="458" type="line"/>
      <point x="152" y="458" type="line"/>
      <point x="152" y="532" type="line"/>
      <point x="130" y="532" type="line"/>
      <point x="130" y="645" type="line"/>
      <point x="22" y="645" type="line"/>
    </contour>
  </outline>
</glyph>
<glyph name="u" format="1">
  <advance width="299"/>
  <unicode hex="0075"/>
  <outline>
    <contour>
      <point x="17" y="532" type="line"/>
      <point x="17" y="133" type="line"/>
      <point x="17" y="77"/>
      <point x="25" y="41"/>
      <point x="38" y="19" type="curve" smooth="yes"/>
      <point x="51" y="-3"/>
      <point x="73" y="-12"/>
      <point x="95" y="-12" type="curve" smooth="yes"/>
      <point x="117" y="-12"/>
      <point x="133" y="-5"/>
      <point x="145" y="9" type="curve" smooth="yes"/>
      <point x="156" y="21"/>
      <point x="166" y="38"/>
      <point x="170" y="50" type="curve"/>
      <point x="175" y="50" type="line"/>
      <point x="173" y="0" type="line"/>
      <point x="281" y="0" type="line"/>
      <point x="281" y="532" type="line"/>
      <point x="173" y="532" type="line"/>
      <point x="173" y="131" type="line"/>
      <point x="168" y="112"/>
      <point x="163" y="100"/>
      <point x="159" y="92" type="curve" smooth="yes"/>
      <point x="155" y="84"/>
      <point x="150" y="80"/>
      <point x="146" y="80" type="curve" smooth="yes"/>
      <point x="138" y="80"/>
      <point x="135" y="85"/>
      <point x="131" y="94" type="curve" smooth="yes"/>
      <point x="126" y="110"/>
      <point x="125" y="142"/>
      <point x="125" y="187" type="curve" smooth="yes"/>
      <point x="125" y="532" type="line"/>
    </contour>
  </outline>
</glyph>
<glyph name="v" format="1">
  <advance width="240"/>
  <unicode hex="0076"/>
  <outline>
    <contour>
      <point x="118" y="79" type="line"/>
      <point x="117" y="167"/>
      <point x="114" y="247"/>
      <point x="111" y="320" type="curve" smooth="yes"/>
      <point x="101" y="532" type="line"/>
      <point x="-8" y="532" type="line"/>
      <point x="62" y="0" type="line"/>
      <point x="177" y="0" type="line"/>
      <point x="248" y="532" type="line"/>
      <point x="139" y="532" type="line"/>
      <point x="130" y="321" type="line"/>
      <point x="124" y="215"/>
      <point x="123" y="167"/>
      <point x="122" y="79" type="curve"/>
    </contour>
  </outline>
</glyph>
<glyph name="w" format="1">
  <advance width="333"/>
  <unicode hex="0077"/>
  <outline>
    <contour>
      <point x="170" y="437" type="line"/>
      <point x="172" y="348"/>
      <point x="172" y="297"/>
      <point x="174" y="216" type="curve" smooth="yes"/>
      <point x="181" y="0" type="line"/>
      <point x="303" y="0" type="line"/>
      <point x="338" y="532" type="line"/>
      <point x="250" y="532" type="line"/>
      <point x="245" y="325" type="line"/>
      <point x="244" y="255"/>
      <point x="242" y="186"/>
      <point x="242" y="94" type="curve"/>
      <point x="238" y="94" type="line"/>
      <point x="237" y="179"/>
      <point x="234" y="252"/>
      <point x="232" y="320" type="curve" smooth="yes"/>
      <point x="225" y="532" type="line"/>
      <point x="110" y="532" type="line"/>
      <point x="102" y="321" type="line"/>
      <point x="100" y="253"/>
      <point x="98" y="183"/>
      <point x="96" y="94" type="curve"/>
      <point x="92" y="94" type="line"/>
      <point x="92" y="184"/>
      <point x="90" y="262"/>
      <point x="90" y="319" type="curve" smooth="yes"/>
      <point x="85" y="532" type="line"/>
      <point x="-5" y="532" type="line"/>
      <point x="31" y="0" type="line"/>
      <point x="153" y="0" type="line"/>
      <point x="160" y="210" type="line"/>
      <point x="163" y="288"/>
      <point x="164" y="343"/>
      <point x="165" y="437" type="curve"/>
    </contour>
  </outline>
</glyph>
<glyph name="x" format="1">
  <advance width="268"/>
  <unicode hex="0078"/>
  <outline>
    <contour>
      <point x="269" y="532" type="line"/>
      <point x="158" y="532" type="line"/>
      <point x="136" y="334" type="line"/>
      <point x="133" y="334" type="line"/>
      <point x="111" y="532" type="line"/>
      <point x="1" y="532" type="line"/>
      <point x="1" y="526" type="line"/>
      <point x="72" y="273" type="line"/>
      <point x="-3" y="5" type="line"/>
      <point x="-3" y="0" type="line"/>
      <point x="109" y="0" type="line"/>
      <point x="133" y="211" type="line"/>
      <point x="135" y="211" type="line"/>
      <point x="160" y="0" type="line"/>
      <point x="272" y="0" type="line"/>
      <point x="272" y="5" type="line"/>
      <point x="198" y="273" type="line"/>
      <point x="269" y="526" type="line"/>
    </contour>
  </outline>
</glyph>
<glyph name="y" format="1">
  <advance width="258"/>
  <unicode hex="0079"/>
  <outline>
    <contour>
      <point x="263" y="532" type="line"/>
      <point x="160" y="532" type="line"/>
      <point x="147" y="356" type="line"/>
      <point x="142" y="300"/>
      <point x="138" y="244"/>
      <point x="135" y="164" type="curve"/>
      <point x="131" y="164" type="line"/>
      <point x="128" y="240"/>
      <point x="122" y="300"/>
      <point x="116" y="355" type="curve" smooth="yes"/>
      <point x="98" y="532" type="line"/>
      <point x="-10" y="532" type="line"/>
      <point x="90" y="27" type="line"/>
      <point x="75" y="-82" type="line"/>
      <point x="71" y="-116"/>
      <point x="66" y="-142"/>
      <point x="59" y="-160" type="curve" smooth="yes"/>
      <point x="54" y="-176"/>
      <point x="47" y="-186"/>
      <point x="38" y="-186" type="curve" smooth="yes"/>
      <point x="35" y="-186"/>
      <point x="29" y="-185"/>
      <point x="25" y="-182" type="curve" smooth="yes"/>
      <point x="21" y="-179"/>
      <point x="17" y="-174"/>
      <point x="14" y="-171" type="curve"/>
      <point x="-9" y="-243" type="line"/>
      <point x="-1" y="-248"/>
      <point x="9" y="-253"/>
      <point x="20" y="-256" type="curve" smooth="yes"/>
      <point x="29" y="-259"/>
      <point x="39" y="-261"/>
      <point x="51" y="-261" type="curve" smooth="yes"/>
      <point x="87" y="-261"/>
      <point x="112" y="-243"/>
      <point x="130" y="-218" type="curve" smooth="yes"/>
      <point x="149" y="-192"/>
      <point x="165" y="-136"/>
      <point x="172" y="-88" type="curve" smooth="yes"/>
    </contour>
  </outline>
</glyph>
<glyph name="z" format="1">
  <advance width="206"/>
  <unicode hex="007A"/>
  <outline>
    <contour>
      <point x="196" y="532" type="line"/>
      <point x="13" y="532" type="line"/>
      <point x="13" y="458" type="line"/>
      <point x="93" y="458" type="line"/>
      <point x="6" y="65" type="line"/>
      <point x="6" y="0" type="line"/>
      <point x="200" y="0" type="line"/>
      <point x="200" y="74" type="line"/>
      <point x="113" y="74" type="line"/>
      <point x="196" y="467" type="line"/>
    </contour>
  </outline>
</glyph>
<glyph name="braceleft" format="1">
  <advance width="195"/>
  <unicode hex="007B"/>
  <outline>
    <contour>
      <point x="1" y="253" type="line"/>
      <point x="11" y="248"/>
      <point x="23" y="242"/>
      <point x="32" y="229" type="curve" smooth="yes"/>
      <point x="41" y="216"/>
      <point x="47" y="196"/>
      <point x="47" y="164" type="curve" smooth="yes"/>
      <point x="47" y="17" type="line"/>
      <point x="47" y="-50"/>
      <point x="61" y="-88"/>
      <point x="85" y="-114" type="curve" smooth="yes"/>
      <point x="123" y="-151"/>
      <point x="185" y="-156"/>
      <point x="213" y="-156" type="curve"/>
      <point x="213" y="-75" type="line"/>
      <point x="195" y="-75"/>
      <point x="180" y="-68"/>
      <point x="169" y="-51" type="curve" smooth="yes"/>
      <point x="159" y="-33"/>
      <point x="155" y="-2"/>
      <point x="155" y="43" type="curve" smooth="yes"/>
      <point x="155" y="156" type="line"/>
      <point x="155" y="206"/>
      <point x="144" y="240"/>
      <point x="123" y="262" type="curve" smooth="yes"/>
      <point x="105" y="279"/>
      <point x="82" y="288"/>
      <point x="57" y="291" type="curve"/>
      <point x="57" y="294" type="line"/>
      <point x="82" y="298"/>
      <point x="105" y="306"/>
      <point x="123" y="323" type="curve" smooth="yes"/>
      <point x="144" y="345"/>
      <point x="155" y="379"/>
      <point x="155" y="429" type="curve" smooth="yes"/>
      <point x="155" y="541" type="line"/>
      <point x="155" y="586"/>
      <point x="159" y="617"/>
      <point x="169" y="634" type="curve" smooth="yes"/>
      <point x="180" y="651"/>
      <point x="195" y="658"/>
      <point x="213" y="658" type="curve"/>
      <point x="213" y="739" type="line"/>
      <point x="185" y="739"/>
      <point x="123" y="734"/>
      <point x="85" y="698" type="curve" smooth="yes"/>
      <point x="61" y="672"/>
      <point x="47" y="634"/>
      <point x="47" y="567" type="curve" smooth="yes"/>
      <point x="47" y="421" type="line"/>
      <point x="47" y="389"/>
      <point x="41" y="369"/>
      <point x="32" y="356" type="curve" smooth="yes"/>
      <point x="23" y="343"/>
      <point x="11" y="337"/>
      <point x="1" y="333" type="curve"/>
    </contour>
  </outline>
</glyph>
<glyph name="bar" format="1">
  <advance width="138"/>
  <unicode hex="007C"/>
  <outline>
    <contour>
      <point x="27" y="-250" type="line"/>
      <point x="112" y="-250" type="line"/>
      <point x="112" y="750" type="line"/>
      <point x="27" y="750" type="line"/>
    </contour>
  </outline>
</glyph>
<glyph name="braceright" format="1">
  <advance width="195"/>
  <unicode hex="007D"/>
  <outline>
    <contour>
      <point x="195" y="333" type="line"/>
      <point x="184" y="337"/>
      <point x="173" y="343"/>
      <point x="164" y="356" type="curve" smooth="yes"/>
      <point x="154" y="369"/>
      <point x="148" y="389"/>
      <point x="148" y="421" type="curve" smooth="yes"/>
      <point x="148" y="567" type="line"/>
      <point x="148" y="634"/>
      <point x="134" y="672"/>
      <point x="110" y="698" type="curve" smooth="yes"/>
      <point x="73" y="734"/>
      <point x="7" y="739"/>
      <point x="-19" y="739" type="curve"/>
      <point x="-19" y="658" type="line"/>
      <point x="1" y="658"/>
      <point x="16" y="651"/>
      <point x="26" y="634" type="curve" smooth="yes"/>
      <point x="36" y="617"/>
      <point x="40" y="586"/>
      <point x="40" y="541" type="curve" smooth="yes"/>
      <point x="40" y="429" type="line"/>
      <point x="40" y="379"/>
      <point x="52" y="345"/>
      <point x="73" y="323" type="curve" smooth="yes"/>
      <point x="90" y="306"/>
      <point x="113" y="298"/>
      <point x="139" y="294" type="curve"/>
      <point x="139" y="291" type="line"/>
      <point x="113" y="288"/>
      <point x="90" y="279"/>
      <point x="73" y="262" type="curve" smooth="yes"/>
      <point x="52" y="240"/>
      <point x="40" y="206"/>
      <point x="40" y="156" type="curve" smooth="yes"/>
      <point x="40" y="43" type="line"/>
      <point x="40" y="-2"/>
      <point x="36" y="-33"/>
      <point x="26" y="-51" type="curve" smooth="yes"/>
      <point x="16" y="-68"/>
      <point x="1" y="-75"/>
      <point x="-19" y="-75" type="curve"/>
      <point x="-19" y="-156" type="line"/>
      <point x="7" y="-156"/>
      <point x="73" y="-150"/>
      <point x="110" y="-114" type="curve" smooth="yes"/>
      <point x="134" y="-88"/>
      <point x="148" y="-50"/>
      <point x="148" y="17" type="curve" smooth="yes"/>
      <point x="148" y="164" type="line"/>
      <point x="148" y="196"/>
      <point x="154" y="216"/>
      <point x="164" y="229" type="curve" smooth="yes"/>
      <point x="173" y="242"/>
      <point x="184" y="248"/>
      <point x="195" y="253" type="curve"/>
    </contour>
  </outline>
</glyph>
<glyph name="paragraph" format="1">
  <advance width="346"/>
  <unicode hex="00B6"/>
  <outline>
    <contour>
      <point x="148" y="-142" type="line"/>
      <point x="220" y="-142" type="line"/>
      <point x="220" y="657" type="line"/>
      <point x="245" y="657" type="line"/>
      <point x="245" y="-142" type="line"/>
      <point x="317" y="-142" type="line"/>
      <point x="317" y="709" type="line"/>
      <point x="167" y="709" type="line"/>
      <point x="113" y="709"/>
      <point x="73" y="690"/>
      <point x="47" y="655" type="curve" smooth="yes"/>
      <point x="15" y="616"/>
      <point x="-1" y="564"/>
      <point x="-1" y="505" type="curve" smooth="yes"/>
      <point x="-1" y="450"/>
      <point x="13" y="400"/>
      <point x="39" y="363" type="curve" smooth="yes"/>
      <point x="66" y="325"/>
      <point x="104" y="303"/>
      <point x="148" y="301" type="curve"/>
    </contour>
  </outline>
</glyph>
<glyph name="endash" format="1">
  <advance width="229"/>
  <unicode hex="2013"/>
  <outline>
    <contour>
      <point x="16" y="301" type="line"/>
      <point x="16" y="198" type="line"/>
      <point x="213" y="198" type="line"/>
      <point x="213" y="301" type="line"/>
    </contour>
  </outline>
</glyph>
<glyph name="emdash" format="1">
  <advance width="458"/>
  <unicode hex="2014"/>
  <outline>
    <contour>
      <point x="16" y="301" type="line"/>
      <point x="16" y="198" type="line"/>
      <point x="442" y="198" type="line"/>
      <point x="442" y="301" type="line"/>
    </contour>
  </outline>
</glyph>
<glyph name="bullet" format="1">
  <advance width="213"/>
  <unicode hex="2022"/>
  <outline>
    <contour>
      <point x="107" y="443" type="line"/>
      <point x="50" y="443"/>
      <point x="4" y="397"/>
      <point x="4" y="341" type="curve" smooth="yes"/>
      <point x="4" y="285"/>
      <point x="50" y="239"/>
      <point x="107" y="239" type="curve" smooth="yes"/>
      <point x="163" y="239"/>
      <point x="208" y="285"/>
      <point x="208" y="341" type="curve" smooth="yes"/>
      <point x="208" y="397"/>
      <point x="163" y="443"/>
      <point x="108" y="443" type="curve"/>
    </contour>
  </outline>
</glyph>
<glyph name="trademark" format="1">
  <advance width="482"/>
  <unicode hex="2122"/>
  <outline>
    <contour>
      <point x="168" y="709" type="line"/>
      <point x="4" y="709" type="line"/>
      <point x="4" y="658" type="line"/>
      <point x="47" y="658" type="line"/>
      <point x="47" y="353" type="line"/>
      <point x="124" y="353" type="line"/>
      <point x="124" y="658" type="line"/>
      <point x="168" y="658" type="line"/>
    </contour>
    <contour>
      <point x="315" y="445" type="line"/>
      <point x="314" y="497"/>
      <point x="310" y="542"/>
      <point x="305" y="584" type="curve" smooth="yes"/>
      <point x="292" y="709" type="line"/>
      <point x="177" y="709" type="line"/>
      <point x="177" y="353" type="line"/>
      <point x="246" y="353" type="line"/>
      <point x="246" y="491" type="line"/>
      <point x="246" y="536"/>
      <point x="245" y="582"/>
      <point x="244" y="637" type="curve"/>
      <point x="248" y="637" type="line"/>
      <point x="251" y="582"/>
      <point x="256" y="536"/>
      <point x="260" y="490" type="curve" smooth="yes"/>
      <point x="274" y="353" type="line"/>
      <point x="353" y="353" type="line"/>
      <point x="368" y="491" type="line"/>
      <point x="373" y="536"/>
      <point x="378" y="582"/>
      <point x="381" y="637" type="curve"/>
      <point x="385" y="637" type="line"/>
      <point x="384" y="582"/>
      <point x="383" y="536"/>
      <point x="383" y="491" type="curve" smooth="yes"/>
      <point x="383" y="353" type="line"/>
      <point x="452" y="353" type="line"/>
      <point x="452" y="709" type="line"/>
      <point x="342" y="709" type="line"/>
      <point x="328" y="584" type="line"/>
      <point x="323" y="543"/>
      <point x="319" y="498"/>
      <point x="317" y="445" type="curve"/>
    </contour>
  </outline>
</glyph>
<glyph name="fi" format="1">
  <advance width="292"/>
  <unicode hex="FB01"/>
  <outline>
    <contour>
      <point x="166" y="733" type="line"/>
      <point x="162" y="734"/>
      <point x="157" y="736"/>
      <point x="150" y="737" type="curve" smooth="yes"/>
      <point x="143" y="738"/>
      <point x="133" y="739"/>
      <point x="122" y="739" type="curve" smooth="yes"/>
      <point x="90" y="739"/>
      <point x="65" y="728"/>
      <point x="48" y="710" type="curve" smooth="yes"/>
      <point x="25" y="684"/>
      <point x="17" y="637"/>
      <point x="17" y="570" type="curve" smooth="yes"/>
      <point x="17" y="532" type="line"/>
      <point x="-5" y="532" type="line"/>
      <point x="-5" y="458" type="line"/>
      <point x="17" y="458" type="line"/>
      <point x="17" y="0" type="line"/>
      <point x="125" y="0" type="line"/>
      <point x="125" y="458" type="line"/>
      <point x="191" y="458" type="line"/>
      <point x="191" y="532" type="line"/>
      <point x="125" y="532" type="line"/>
      <point x="125" y="576" type="line"/>
      <point x="125" y="618"/>
      <point x="127" y="642"/>
      <point x="134" y="653" type="curve" smooth="yes"/>
      <point x="138" y="659"/>
      <point x="142" y="662"/>
      <point x="146" y="662" type="curve" smooth="yes"/>
      <point x="149" y="662"/>
      <point x="152" y="661"/>
      <point x="154" y="660" type="curve" smooth="yes"/>
      <point x="156" y="660"/>
      <point x="159" y="658"/>
      <point x="161" y="657" type="curve"/>
    </contour>
    <contour>
      <point x="274" y="641" type="line"/>
      <point x="274" y="733" type="line"/>
      <point x="167" y="733" type="line"/>
      <point x="167" y="641" type="line"/>
    </contour>
    <contour>
      <point x="274" y="532" type="line"/>
      <point x="167" y="532" type="line"/>
      <point x="167" y="0" type="line"/>
      <point x="274" y="0" type="line"/>
    </contour>
  </outline>
</glyph>
